<svg width="319" height="83" viewBox="0 0 319 83" fill="none" xmlns="http://www.w3.org/2000/svg">
<path d="M7.75892 42.1353L26.8091 62.0144H22.7737L22.9972 61.8754C23.2957 61.6884 23.4569 61.4636 23.475 61.2026C23.475 60.9985 23.3527 60.7845 23.1103 60.5597L6.52654 43.2813L5.9393 43.9811V58.8548C5.95741 60.1795 6.30213 61.1565 6.97534 61.7914L7.25583 62.0144H4.39748V22.9011H7.25583L6.97534 23.1241C6.30213 23.7788 5.95741 24.7558 5.9393 26.0607V41.8572L22.3819 24.8859C22.8479 24.4379 23.0831 23.9827 23.0831 23.5178C23.0831 23.3858 23.0723 23.283 23.0542 23.2081L22.97 22.9011H27.1441L26.726 23.0969C26.3704 23.2649 26.061 23.4563 25.8004 23.6713C25.5379 23.8845 25.2954 24.1129 25.0719 24.3568L9.80383 40.0113L28.6279 59.9456L29.2721 60.6427C29.741 61.1295 30.1797 61.5024 30.5888 61.7616L31.0094 62.0144H28.4063L8.65561 41.2134L7.75892 42.1353ZM0 62.0144L0.280498 61.7914C0.765487 61.3977 1.07313 60.7664 1.20342 59.8887L1.31653 58.8548V26.0607L1.20342 25.0267C1.03603 23.9827 0.634286 23.2739 0 22.9011H2.85744V62.0144H0Z" fill="#797979"/>
<path d="M38.5163 22.9011H41.3728L41.1222 23.1241C40.6561 23.5359 40.3369 24.1688 40.1704 25.0267L40.0564 26.0607V58.8548L40.1704 59.8887C40.3006 60.6725 40.6172 61.3055 41.1222 61.7914L41.3728 62.0144H38.5163V22.9011ZM34.1189 62.0144L34.3994 61.7914C34.8835 61.3977 35.193 60.7664 35.325 59.8887L35.4353 58.8548V26.0607L35.325 25.0267C35.1548 23.9827 34.7522 23.2739 34.1189 22.9011H36.9754V62.0144H34.1189Z" fill="#797979"/>
<path d="M61.6874 41.7461C62.3596 41.3921 62.8527 41.085 63.1712 40.8231C65.9717 38.7913 67.3815 36.1456 67.4012 32.883C67.3451 29.4723 65.7301 26.8716 62.5542 25.0828L61.3506 24.4965L62.4427 25.4187C63.5991 26.4615 64.4786 27.6745 65.0758 29.0532C65.5988 30.2842 65.8612 31.616 65.8612 33.0518C65.8612 34.3748 65.6368 35.6226 65.1872 36.7975C64.6641 38.2134 63.8435 39.5094 62.7233 40.6833L61.6874 41.7461ZM70.5391 57.2627C68.2971 55.137 66.1508 52.7322 64.0941 50.0494C62.8437 48.4646 61.5181 46.6107 60.1173 44.4859L59.7266 43.8989L57.9893 44.1211L58.5475 44.8769C60.5473 47.5787 62.0673 49.5834 63.1152 50.8883C65.4858 53.9261 68.9033 56.9169 73.3667 59.8625L70.5391 57.2627ZM53.1421 23.7958V42.7512H54.9896C57.6048 42.7151 59.8035 41.7461 61.5878 39.8443C63.3702 37.9434 64.2824 35.6795 64.3204 33.0518C64.3204 31.8201 64.0769 30.6092 63.59 29.4173C62.3397 26.4164 60.2468 24.5978 57.3152 23.9639C56.7922 23.8527 56.2882 23.7958 55.804 23.7958H53.1421ZM53.1421 58.2127C53.1592 59.5374 53.5057 60.5145 54.1773 61.1493L54.4578 61.3723H51.6012V22.259H55.2701L57.876 22.3159C60.939 22.464 63.506 23.4888 65.5807 25.3916C67.823 27.4414 68.9422 29.9383 68.9422 32.883C68.9422 34.5609 68.5487 36.1636 67.766 37.6907C66.9244 39.3142 65.7663 40.6553 64.2914 41.7172C63.6943 42.1462 62.9449 42.585 62.0501 43.0311L61.3779 43.367L61.8257 44.094C63.9539 47.4306 66.8313 51.1014 70.4551 55.1099C72.8256 57.7765 75.0679 59.6665 77.1781 60.7854C77.4947 60.9895 78.223 61.2965 79.3631 61.7083V62.0144H75.104L74.0111 61.4834C68.8581 58.9125 64.628 55.5099 61.3207 51.2802C59.7537 49.3044 58.2399 47.1886 56.7832 44.9329L56.3651 44.2899H53.1421V58.2127ZM47.2036 61.3723L47.4841 61.1493C47.9682 60.7556 48.2786 60.1244 48.407 59.2466L48.5202 58.2127V25.4187L48.407 24.3846C48.2397 23.3407 47.8371 22.6319 47.2036 22.259H50.0602V61.3723H47.2036Z" fill="#797979"/>
<path d="M97.7967 60.3646C99.944 59.3198 101.419 58.2497 102.222 57.1489C103.473 55.454 104.117 53.6561 104.156 51.7543C104.135 50.2806 103.708 48.7761 102.867 47.2374C102.027 45.7014 100.701 44.382 98.8898 43.2813C101.356 45.146 102.595 47.8867 102.615 51.5015C102.615 52.8993 102.391 54.2223 101.942 55.472C101.606 56.4608 101.147 57.288 100.57 57.9608C99.8988 58.7816 99.0392 59.5356 97.9913 60.2255L97.7967 60.3646ZM100.878 31.96C100.84 29.1455 99.6843 27.0206 97.406 25.5857L96.4803 25.0808L97.2929 25.8656C97.6666 26.2376 97.9642 26.6567 98.1887 27.1227C98.9533 28.6145 99.3378 30.3004 99.3378 32.1822C99.2989 34.2898 98.8718 35.994 98.0483 37.2987C97.8421 37.6356 97.5056 38.0926 97.0395 38.6696C99.5975 36.9178 100.878 34.68 100.878 31.96ZM87.4889 60.4775H92.0267C92.6783 60.4955 93.2212 60.4865 93.6509 60.4477C96.0595 60.3556 97.9172 59.4607 99.2245 57.7657C100.421 56.1809 101.036 54.1672 101.075 51.7254C101.036 49.1717 100.356 47.0387 99.0302 45.323C97.6666 43.5341 95.6868 42.5543 93.0899 42.3882H91.2685H87.4889V60.4775ZM87.4889 40.8503H90.9338C93.155 40.8882 94.8922 39.9085 96.1438 37.9155C97.1887 36.2377 97.7407 34.2537 97.7967 31.96C97.7967 30.6733 97.5734 29.4705 97.1255 28.3526C96.2098 26.0048 94.5376 24.7178 92.1101 24.4948L90.626 24.4379H87.4889V40.8503ZM96.3673 41.1862C99.0754 41.6513 101.288 42.7521 103.007 44.4841C104.8 46.2928 105.697 48.5567 105.697 51.2784C105.678 54.5212 104.425 57.1869 101.942 59.2747C99.944 60.9525 97.1046 61.8555 93.4265 61.9864L91.9136 62.0144H85.9462V22.9011H90.8476L93.0628 22.9579C94.3495 23.0129 95.4987 23.2379 96.5084 23.6279C97.6666 24.0768 98.7226 24.7377 99.6725 25.6127C100.701 26.5809 101.439 27.6725 101.887 28.8836C102.222 29.8344 102.401 30.8412 102.419 31.9032C102.382 34.978 101.093 37.4668 98.5523 39.3675C97.7497 40.0023 96.9554 40.4674 96.1709 40.7654L95.4442 41.0454L96.3673 41.1862ZM81.5488 62.0144L81.8293 61.7914C82.4826 61.1565 82.8291 60.1795 82.8652 58.8548V26.0607C82.8291 24.7558 82.4826 23.7788 81.8293 23.1241L81.5488 22.9011H84.4063V62.0144H81.5488Z" fill="#797979"/>
<path d="M122.727 58.8548C122.745 60.1795 123.092 61.1565 123.766 61.7914L124.044 62.0144H121.187V43.1982L109.085 22.9011H112.195L112.082 23.0129L111.887 23.3199L111.831 23.684C111.792 24.1878 111.981 24.7558 112.392 25.3906L121.916 41.2134L131.412 24.7178C131.504 24.5516 131.6 24.3269 131.692 24.047L131.776 23.5449L131.748 23.2649C131.73 23.153 131.701 23.0698 131.665 23.0129L131.581 22.9011H134.914L134.522 23.3199C134.298 23.5809 134.018 23.9638 133.68 24.4668L132.982 25.5288L122.727 43.1422V58.8548ZM107.013 25.1386C106.398 24.0588 105.686 23.3109 104.885 22.9011H107.544L119.646 43.4221V62.0144H116.79C117.518 61.6225 117.918 60.9136 117.995 59.8887L118.106 58.8548V44.066L107.013 25.1386Z" fill="#797979"/>
<path d="M154.694 62.0144V22.9011H168.952V25.7537L168.727 25.3906C168.354 24.8859 167.88 24.5879 167.301 24.4948L166.544 24.4379H156.234V42.4153H165.954C166.945 42.4722 167.664 42.1353 168.112 41.4083L168.307 41.1013V45.267C167.897 44.355 167.112 43.9161 165.954 43.9531H156.234V60.4775H167.271H167.691C168.234 60.4567 168.793 60.1316 169.372 59.4977L169.709 59.1618L169.933 59.4408L168.307 62.0144H154.694ZM150.296 62.0144L150.575 61.7914C151.097 61.3426 151.415 60.7095 151.529 59.8887L151.613 58.8548V26.0607L151.529 25.0267C151.397 24.0019 150.985 23.292 150.296 22.9011H153.153V62.0144H150.296Z" fill="#797979"/>
<path d="M178.981 25.7257C177.486 27.0124 176.739 28.6144 176.739 30.5352C176.721 31.7082 176.982 32.7718 177.524 33.7219C178.178 34.9707 179.074 36.1636 180.214 37.3005L189.262 46.5809C191.205 48.5585 192.185 50.7574 192.203 53.182C192.164 54.9329 191.633 56.7868 190.606 58.7446C192.698 56.8798 193.743 54.7731 193.743 52.4261C193.743 50.2634 192.734 48.1476 190.719 46.0788L181.417 36.6026C179.327 34.513 178.279 32.352 178.279 30.1152C178.241 27.9724 178.757 26.2846 179.82 25.0555L178.981 25.7257ZM174.414 55.137H174.64L175.199 55.9199C175.817 56.7778 176.498 57.4966 177.243 58.0745C179.166 59.6575 181.464 60.4576 184.137 60.4756C186.077 60.4756 187.656 59.7695 188.871 58.3526C190.083 56.9376 190.68 55.2688 190.662 53.3481C190.644 51.2612 189.878 49.4335 188.366 47.8677L179.653 39.2303C178.867 38.4843 178.142 37.6544 177.468 36.7415C175.936 34.7467 175.18 32.7998 175.199 30.8963C175.18 28.1583 176.244 25.9118 178.393 24.1597C180.447 22.4821 182.847 21.6251 185.593 21.5888C186.432 21.6068 187.367 21.719 188.394 21.9231L190.047 22.286C190.363 22.3619 190.701 22.3979 191.054 22.3979C191.427 22.4187 191.8 22.3619 192.176 22.2319L192.764 22.0359V26.0327H192.511L192.092 25.5035C190.728 23.88 188.626 23.0889 185.788 23.125C184.07 23.1638 182.641 23.8067 181.501 25.0555C180.363 26.3036 179.802 27.7944 179.82 29.5282C179.802 31.5961 180.802 33.6117 182.817 35.5667C186.759 39.4795 189.83 42.6121 192.036 44.96C194.182 47.2898 195.266 49.7694 195.284 52.3972C195.302 55.3618 194.275 57.7187 192.203 59.4715C190.205 61.1493 187.748 61.9963 184.835 62.0144C182.817 62.0144 180.614 61.5024 178.223 60.4756C177.121 60.0124 176.357 59.7695 175.927 59.7514L175.115 59.8056C174.966 59.8444 174.733 59.8535 174.414 59.8354V55.137Z" fill="#797979"/>
<path d="M216.908 62.0144V22.9011H234.556L233.968 25.9197H233.801L233.521 25.5288C232.979 24.8769 232.335 24.5699 231.589 24.606H218.448V58.8548L218.534 59.8887C218.646 60.9344 219.057 61.6406 219.766 62.0144H216.908ZM212.511 62.0144L212.791 61.7914C213.313 61.3426 213.63 60.7095 213.743 59.8887L213.827 58.8548V24.606H200.689C199.925 24.5699 199.28 24.8769 198.755 25.5288L198.45 25.9197H198.281L197.719 22.9011H215.368V62.0144H212.511Z" fill="#797979"/>
<path d="M246.975 21.0001L262.745 59.2747C263.136 60.3176 263.826 61.1845 264.818 61.8754L265.015 62.0144H262.101L245.935 22.7899L246.975 21.0001ZM252.21 45.9669L246.076 30.3934L239.551 45.9669H252.21ZM229.913 62.0144L230.051 61.9024C230.332 61.6983 230.558 61.5024 230.725 61.3155C230.967 61.0735 231.187 60.8107 231.383 60.5326C231.581 60.2526 231.752 59.9185 231.902 59.5257L245.207 28.4934L244.733 27.2626L244.563 26.8698L244.369 26.4516C244.274 26.3407 244.135 26.2466 243.947 26.1726L243.806 26.1157L245.066 24.1589L260.56 62.0144H257.336L257.477 61.9295C257.945 61.6315 258.179 61.1565 258.179 60.5046L258.121 60.0576L257.813 59.2747L252.798 47.5029H238.905L233.862 59.3866C233.751 59.6088 233.667 59.8616 233.609 60.1407L233.526 60.6725C233.526 61.0464 233.714 61.4275 234.086 61.8185L234.283 62.0144H229.913Z" fill="#797979"/>
<path d="M277.711 62.0144V22.9011H295.36L294.772 25.9197H294.602L294.322 25.5288C293.782 24.8769 293.136 24.5699 292.39 24.606H279.252V58.8548L279.335 59.8887C279.446 60.9344 279.859 61.6406 280.57 62.0144H277.711ZM273.313 62.0144L273.593 61.7914C274.114 61.3426 274.434 60.7095 274.547 59.8887L274.628 58.8548V24.606H261.492C260.726 24.5699 260.082 24.8769 259.558 25.5288L259.25 25.9197H259.081L258.523 22.9011H276.171V62.0144H273.313Z" fill="#797979"/>
<path d="M303.761 62.0144V22.9011H318.023V25.7537L317.798 25.3906C317.425 24.8859 316.948 24.5879 316.369 24.4948L315.611 24.4379H305.301V42.4153H315.025C316.012 42.4722 316.732 42.1353 317.182 41.4083L317.376 41.1013V45.267C316.964 44.355 316.183 43.9161 315.025 43.9531H305.301V60.4775H316.341H316.762C317.302 60.4567 317.863 60.1316 318.442 59.4977L318.78 59.1618L319 59.4408L317.376 62.0144H303.761ZM299.364 62.0144L299.645 61.7914C300.168 61.3426 300.483 60.7095 300.597 59.8887L300.68 58.8548V26.0607L300.597 25.0267C300.465 24.0019 300.055 23.292 299.364 22.9011H302.22V62.0144H299.364Z" fill="#797979"/>
</svg>
