<svg width="175" height="78" viewBox="0 0 175 78" fill="none" xmlns="http://www.w3.org/2000/svg">
<g clip-path="url(#clip0_165_586)">
<path d="M18.7199 10.8321C18.7064 10.8187 18.688 10.8112 18.6688 10.8112H8.3623C8.245 10.8112 8.22796 10.8523 8.31119 10.9344L42.4694 44.6596C42.483 44.6735 42.4906 44.6919 42.4906 44.7108V70.7657C42.4906 70.7848 42.4829 70.8032 42.4692 70.8167C42.4555 70.8302 42.4369 70.8378 42.4176 70.8378H0.258417C0.239054 70.8378 0.220484 70.8302 0.206793 70.8167C0.193101 70.8032 0.185409 70.7848 0.185409 70.7657C0.182002 62.8265 0.181029 54.8896 0.182489 46.9547C0.183219 46.4329 0.162047 45.5758 0.19125 44.8831C0.192189 44.8668 0.187276 44.8507 0.177378 44.8377C0.158883 44.8127 0.155719 44.7877 0.167887 44.7627C0.171157 44.7561 0.175985 44.7503 0.181969 44.7459C0.187953 44.7415 0.194918 44.7386 0.20228 44.7374C0.209643 44.7362 0.21719 44.7368 0.224289 44.739C0.231389 44.7413 0.237834 44.7452 0.243086 44.7504C2.28658 46.794 4.36803 48.7979 6.42467 50.8277C12.2804 56.6078 18.1361 62.3878 23.9918 68.1679C24.0059 68.1813 24.0245 68.1887 24.0437 68.1888H34.3458C34.4398 68.1888 34.4536 68.1558 34.3874 68.09L0.204391 34.3403C0.197454 34.3337 0.19194 34.3258 0.188177 34.3171C0.184414 34.3085 0.18248 34.2992 0.182489 34.2899L0.180299 8.25226C0.180299 8.23314 0.187991 8.21481 0.201682 8.20129C0.215374 8.18777 0.233944 8.18018 0.253307 8.18018H42.4176C42.4369 8.18018 42.4555 8.18777 42.4692 8.20129C42.4829 8.21481 42.4906 8.23314 42.4906 8.25226V34.1623C42.4906 34.255 42.4572 34.2685 42.3906 34.2026L18.7199 10.8321Z" fill="#797979"/>
<path d="M70.9644 36.345C74.9974 36.8546 80.6723 37.3361 81.9718 42.1498C82.3452 43.5333 82.4242 44.961 82.2091 46.4329C81.4549 51.5947 76.6963 53.3644 72.045 53.4934C69.029 53.577 65.8648 53.3031 63.0423 52.2226C62.3424 51.9544 61.6713 51.5952 61.0288 51.145C61.0193 51.1383 61.0116 51.1295 61.0062 51.1194C61.0009 51.1092 60.9981 51.098 60.9981 51.0866V44.9055C60.9981 44.8881 61.0045 44.8714 61.016 44.8582C61.0275 44.8451 61.0435 44.8366 61.0609 44.8341C61.1422 44.8231 61.2206 44.8298 61.296 44.8543C61.35 44.8716 61.4238 44.9166 61.5172 44.9891C64.101 47.0038 67.3031 48.0036 70.5753 48.098C72.3092 48.1485 75.2354 47.9676 75.9837 46.0696C76.6737 44.3195 75.5428 43.3334 73.9724 42.8987C72.5918 42.516 71.1922 42.3884 69.7766 42.2075C66.8826 41.8377 63.2862 40.959 61.7362 38.1997C60.755 36.4524 60.6397 33.8401 61.1252 31.9127C62.6956 25.6782 70.0672 24.9408 75.3069 25.7172C77.1869 25.9954 79.0785 26.4704 80.6409 27.4709C80.651 27.4776 80.6593 27.4866 80.665 27.4971C80.6707 27.5077 80.6738 27.5195 80.6738 27.5315V33.7183C80.6738 33.7359 80.6672 33.753 80.655 33.7662C80.6429 33.7793 80.6262 33.7877 80.6081 33.7897C80.2883 33.8243 80.2058 33.6592 80.0021 33.4783C77.8009 31.5342 74.5791 30.8393 71.7128 30.8725C70.5111 30.8862 69.2414 31.1039 68.2442 31.7324C67.314 32.3185 66.8176 33.306 67.0921 34.3959C67.2907 35.1874 68.012 35.6148 68.7479 35.8491C69.4931 36.0869 70.2319 36.2523 70.9644 36.345Z" fill="#797979"/>
<path d="M92.7055 25.885H86.583C86.5653 25.885 86.5509 25.8992 86.5509 25.9167V53.0918C86.5509 53.1093 86.5653 53.1235 86.583 53.1235H92.7055C92.7232 53.1235 92.7376 53.1093 92.7376 53.0918V25.9167C92.7376 25.8992 92.7232 25.885 92.7055 25.885Z" fill="#797979"/>
<path d="M119.568 40.8884C121.376 42.6544 121.61 45.3719 121.065 47.7009C120.03 52.1246 115.368 53.1179 111.442 53.1215C107.176 53.1258 102.907 53.126 98.6337 53.1222C98.6143 53.1222 98.5958 53.1146 98.5821 53.1011C98.5684 53.0876 98.5607 53.0692 98.5607 53.0501L98.5614 25.9507C98.5614 25.9412 98.5633 25.9318 98.5671 25.923C98.5708 25.9142 98.5762 25.9062 98.5831 25.8995C98.5899 25.8928 98.5981 25.8875 98.607 25.8839C98.6159 25.8804 98.6255 25.8786 98.6352 25.8787C102.727 25.9183 106.859 25.87 110.972 25.8938C116.262 25.9248 120.826 28.2048 120.282 34.2373C120.075 36.5353 118.935 38.175 116.862 39.1562C116.751 39.2091 116.754 39.2538 116.873 39.2903C117.904 39.607 118.802 40.1397 119.568 40.8884ZM113.241 32.0878C112.589 31.5552 111.625 31.3656 110.79 31.3569C110.181 31.3502 108.192 31.3504 104.821 31.3576C104.802 31.3576 104.783 31.3652 104.77 31.3788C104.756 31.3923 104.748 31.4106 104.748 31.4297V36.7761C104.748 36.7952 104.756 36.8135 104.77 36.827C104.783 36.8406 104.802 36.8482 104.821 36.8482C106.592 36.853 108.363 36.8532 110.134 36.8489C111.255 36.846 112.728 36.6672 113.513 35.764C114.358 34.7909 114.275 32.9326 113.241 32.0878ZM115.029 44.5963C114.895 42.5419 112.972 42.0157 111.249 41.9905C109.123 41.9593 106.993 41.9562 104.861 41.9811C104.841 41.9813 104.823 41.989 104.809 42.0025C104.796 42.016 104.788 42.0342 104.788 42.0532L104.783 47.5661C104.783 47.5852 104.791 47.6035 104.804 47.6171C104.818 47.6306 104.836 47.6382 104.855 47.6382C108.763 47.656 111.116 47.6567 111.916 47.6403C112.411 47.6302 112.898 47.5353 113.377 47.3556C114.655 46.8777 115.115 45.9089 115.029 44.5963Z" fill="#797979"/>
<path d="M136.707 25.8873C139.823 25.8764 142.952 25.8894 146.052 25.875C146.071 25.875 146.09 25.8826 146.104 25.8961C146.118 25.9096 146.125 25.928 146.125 25.9471V31.2826C146.125 31.3017 146.118 31.3201 146.104 31.3336C146.09 31.3471 146.072 31.3547 146.052 31.3547H131.706C131.687 31.3547 131.668 31.3623 131.655 31.3758C131.641 31.3893 131.633 31.4077 131.633 31.4268V36.833C131.633 36.8521 131.641 36.8704 131.655 36.8839C131.668 36.8974 131.687 36.905 131.706 36.905H143.058C143.078 36.905 143.096 36.9126 143.11 36.9262C143.124 36.9397 143.131 36.958 143.131 36.9771L143.134 41.9508C143.134 41.9699 143.126 41.9883 143.112 42.0018C143.098 42.0153 143.08 42.0229 143.06 42.0229H131.706C131.687 42.0229 131.668 42.0305 131.655 42.044C131.641 42.0575 131.633 42.0759 131.633 42.095V47.5732C131.633 47.5924 131.641 47.6107 131.655 47.6242C131.668 47.6377 131.687 47.6453 131.706 47.6453C136.255 47.6453 140.807 47.6453 145.364 47.6453C145.518 47.6453 145.813 47.6821 146.042 47.6518C146.052 47.6504 146.063 47.6511 146.073 47.6541C146.083 47.657 146.092 47.662 146.1 47.6688C146.108 47.6755 146.114 47.6839 146.119 47.6933C146.123 47.7027 146.125 47.7129 146.125 47.7232V53.0515C146.125 53.0706 146.118 53.0889 146.104 53.1025C146.09 53.116 146.072 53.1236 146.052 53.1236H125.533C125.513 53.1236 125.494 53.116 125.481 53.1025C125.467 53.0889 125.459 53.0706 125.459 53.0515C125.465 44.3901 125.467 35.7313 125.463 27.0752C125.463 27.068 125.458 26.9058 125.448 26.5886C125.442 26.3743 125.452 26.1604 125.478 25.9471C125.48 25.9294 125.489 25.9132 125.502 25.9015C125.515 25.8897 125.532 25.8834 125.55 25.8837C129.27 25.899 132.989 25.9002 136.707 25.8873Z" fill="#797979"/>
<path d="M157.186 43.7529V53.0508C157.186 53.0699 157.178 53.0882 157.165 53.1017C157.151 53.1153 157.132 53.1229 157.113 53.1229C155.232 53.1243 153.347 53.1253 151.459 53.1257C151.328 53.1257 151.196 53.1197 151.065 53.1077C151.047 53.1061 151.03 53.0979 151.018 53.0847C151.005 53.0715 150.999 53.0542 150.999 53.0364V25.9471C150.999 25.9376 151.001 25.9281 151.004 25.9193C151.008 25.9105 151.013 25.9026 151.02 25.8959C151.027 25.8892 151.035 25.8839 151.044 25.8803C151.053 25.8767 151.063 25.8749 151.072 25.875C155.354 25.8966 159.667 25.9022 164.012 25.8916C164.454 25.8901 165.076 25.9368 165.879 26.0314C169.64 26.4754 172.7 28.3222 173.546 32.1873C173.873 33.6789 173.922 35.1813 173.692 36.6946C173.268 39.4885 171.75 41.6373 169.075 42.699C168.782 42.8148 168.485 42.9208 168.185 43.0169C168.174 43.0203 168.164 43.026 168.156 43.0336C168.148 43.0413 168.142 43.0507 168.138 43.061C168.134 43.0714 168.133 43.0825 168.134 43.0935C168.136 43.1045 168.139 43.115 168.145 43.1243L174.609 53.0119C174.657 53.0859 174.636 53.1229 174.547 53.1229L167.431 53.1236C167.418 53.1236 167.405 53.1203 167.394 53.1141C167.383 53.1079 167.374 53.099 167.368 53.0883L161.82 43.7168C161.813 43.7059 161.804 43.6968 161.793 43.6905C161.782 43.6841 161.77 43.6808 161.757 43.6808H157.259C157.24 43.6808 157.221 43.6884 157.207 43.7019C157.194 43.7154 157.186 43.7338 157.186 43.7529ZM167.449 33.8012C167.067 31.9278 165.234 31.3569 163.52 31.3561C161.429 31.3547 159.342 31.3542 157.259 31.3547C157.24 31.3547 157.221 31.3623 157.207 31.3758C157.194 31.3893 157.186 31.4077 157.186 31.4268V38.147C157.186 38.1661 157.194 38.1845 157.207 38.198C157.221 38.2115 157.24 38.2191 157.259 38.2191C159.223 38.223 161.186 38.2172 163.149 38.2018C164.207 38.1932 165.244 38.093 166.089 37.6208C167.487 36.838 167.744 35.2522 167.449 33.8012Z" fill="#797979"/>
</g>
<defs>
<clipPath id="clip0_165_586">
<rect width="175" height="63" fill="white" transform="translate(0 8)"/>
</clipPath>
</defs>
</svg>
