<svg width="278" height="81" viewBox="0 0 278 81" fill="none" xmlns="http://www.w3.org/2000/svg">
<path d="M32.5586 57.5695H20.8212L9.05824 42.464V57.5695H0V22.74H9.05824V37.1056L20.1067 22.74H31.2828L17.4531 39.2234L32.5586 57.5695Z" fill="#797979"/>
<path d="M45.448 57.5695H36.3897V22.74H45.448V57.5695Z" fill="#797979"/>
<path d="M70.593 57.5695H50.6649V22.74H59.7231V49.9912H70.593V57.5695Z" fill="#797979"/>
<path d="M110.035 57.5695H100.976L84.3143 36.238V57.5695H75.2561V22.74H84.3143L100.976 44.046V22.74H110.035V57.5695Z" fill="#797979"/>
<path d="M138.568 30.3183H131.066V57.5695H122.008V30.3183H114.634V22.74H138.568V30.3183Z" fill="#797979"/>
<path d="M162.234 57.5695H142.408V22.74H162.234V30.3183H151.466V36.2125H161.647V43.7908H151.466V49.9912H162.234V57.5695Z" fill="#797979"/>
<path d="M193.831 56.753C190.871 57.9268 188.132 58.5137 185.615 58.5137C181.226 58.5137 177.296 57.1103 173.826 54.3035C169.403 50.7142 167.192 46.0362 167.192 40.2696C167.192 34.4859 169.403 29.7994 173.826 26.2102C177.296 23.4034 181.251 22 185.691 22C188.107 22 190.82 22.5869 193.831 23.7606V34.605C192.98 33.5673 192.113 32.7848 191.228 32.2575C189.612 31.2879 187.877 30.8031 186.023 30.8031C183.675 30.8031 181.634 31.509 179.899 32.9209C177.705 34.7071 176.607 37.1566 176.607 40.2696C176.607 43.3655 177.705 45.8066 179.899 47.5927C181.634 49.0046 183.675 49.7106 186.023 49.7106C187.877 49.7106 189.612 49.2258 191.228 48.2562C192.096 47.7458 192.963 46.9633 193.831 45.9087V56.753Z" fill="#797979"/>
<path d="M231.718 57.5695H219.981L208.218 42.464V57.5695H199.16V22.74H208.218V37.1056L219.266 22.74H230.442L216.613 39.2234L231.718 57.5695Z" fill="#797979"/>
<path d="M268.953 29.7304H246.557V22.7317H277.352V50.7266H268.953V29.7304Z" fill="#797979"/>
<path d="M246.558 50.7269H268.953V57.7256H238.159V29.7307H246.558V50.7269Z" fill="#797979"/>
<path d="M251.78 34.953H263.731V45.504H251.78V34.953Z" fill="#797979" stroke="#797979" stroke-width="7.64569"/>
</svg>
