<svg width="163" height="163" viewBox="0 0 163 163" fill="none" xmlns="http://www.w3.org/2000/svg">
<g clip-path="url(#clip0_802_1808)">
<path d="M59.6506 162.639C56.9143 161.896 51.5592 157.245 50.0347 154.196C49.2921 152.828 48.1585 149.231 48.1194 148.411C48.1194 148.254 48.9402 148.02 49.9956 147.863C52.9664 147.433 58.6343 145.401 62.1132 143.525C65.0057 141.961 65.3575 141.883 65.592 142.469C66.2956 144.345 70.1263 149.427 73.2143 152.515L76.6932 155.994L75.5988 157.206C73.3707 159.629 70.3609 161.427 67.4683 162.053C65.0448 162.6 60.706 162.913 59.6506 162.639Z" fill="#797979"/>
<path d="M94.8304 161.974C92.2896 161.271 89.4752 159.59 87.7162 157.753L86.0354 156.072L89.8661 152.163C92.2505 149.701 94.4004 147.043 95.6121 145.049L97.4884 141.883L100.655 143.564C103.899 145.244 109.88 147.355 112.928 147.863L114.648 148.137L114.375 149.583C113.984 151.772 112.068 155.603 110.466 157.401C109.645 158.261 107.808 159.785 106.362 160.763L103.704 162.522L100.068 162.483C98.0356 162.443 95.6903 162.248 94.8304 161.974Z" fill="#797979"/>
<path d="M80.0548 146.534C78.1394 145.283 75.4032 142.469 74.0351 140.358C72.6279 138.169 71.1816 134.769 71.1816 133.674C71.1816 133.283 72.3934 132.071 73.9569 130.899C75.4814 129.726 77.7876 127.576 79.0776 126.13L81.462 123.511L82.9083 125.348C84.3936 127.224 87.2471 129.804 90.1397 131.876C91.586 132.892 91.7032 133.127 91.4687 134.221C90.6869 138.091 86.1917 144.423 82.7519 146.534C81.2665 147.433 81.3838 147.433 80.0548 146.534Z" fill="#797979"/>
<path d="M28.3013 144.189C24.6269 142.821 22.2034 141.296 21.148 139.655C19.2718 136.801 18.3336 133.948 18.1382 130.664C17.9427 127.693 18.5291 123.276 19.1154 122.885C19.2718 122.807 20.6399 123.12 22.1252 123.628C25.6432 124.762 31.5456 125.778 34.7118 125.778H37.1744V128.436C37.1744 131.915 38.1125 137.505 39.2852 140.944L40.2234 143.72L38.9725 144.15C38.308 144.423 36.0799 144.697 34.0473 144.775C31.0375 144.932 29.943 144.814 28.3013 144.189Z" fill="#797979"/>
<path d="M125.007 144.384C123.991 144.111 123.053 143.759 122.896 143.642C122.779 143.485 123.053 142.195 123.522 140.749C124.655 137.114 125.515 132.032 125.515 128.671V125.895L129.15 125.661C133.372 125.348 137.867 124.527 141.033 123.472C142.284 123.042 143.379 122.768 143.535 122.886C144.2 123.277 144.747 126.795 144.63 130.117C144.473 133.401 144.317 134.104 142.988 136.918C141.151 140.749 140.76 141.218 138.024 142.586C133.489 144.893 129.111 145.479 125.007 144.384Z" fill="#797979"/>
<path d="M48.1975 138.208C48.0021 137.935 47.3376 136.371 46.7512 134.769C45.8913 132.384 45.6568 131.133 45.6177 128.123C45.6177 125.974 45.8131 123.628 46.1258 122.573C46.6731 120.697 46.6731 120.697 48.3539 120.697C50.3865 120.697 54.7253 119.798 57.7743 118.781C59.0251 118.351 60.1587 118.078 60.276 118.195C60.4323 118.273 60.6668 119.25 60.8232 120.384C61.175 122.729 62.1913 126.091 63.5985 129.218L64.5757 131.446L62.6995 133.166C60.315 135.316 55.3508 137.661 51.9891 138.247C48.7839 138.795 48.7057 138.795 48.1975 138.208Z" fill="#797979"/>
<path d="M109.919 138.091C108.551 137.778 106.362 137.036 105.033 136.371C102.179 135.003 97.9966 131.759 98.3093 131.133C100.42 126.325 102.062 121.244 102.062 119.446C102.062 118.859 102.179 118.312 102.375 118.195C102.531 118.117 103.664 118.351 104.915 118.781C107.964 119.797 112.303 120.697 114.375 120.697C115.938 120.697 116.095 120.814 116.525 121.986C117.893 125.7 117.306 132.462 115.235 136.723C114.218 138.755 113.71 138.912 109.919 138.091Z" fill="#797979"/>
<path d="M70.009 120.97C68.3673 118.351 67.5855 116.084 67.3901 113.27L67.1555 110.338L70.1263 108.814C71.7289 107.993 73.4488 106.976 73.9179 106.546C74.3869 106.116 74.7778 105.843 74.856 105.882C74.8951 105.96 75.286 106.82 75.6769 107.758C76.1068 108.696 77.0841 110.416 77.8658 111.511L79.3121 113.582L78.0222 115.498C76.4977 117.765 74.1133 119.993 72.0416 121.048L70.5562 121.791L70.009 120.97Z" fill="#797979"/>
<path d="M90.1398 120.736C87.9117 119.446 85.1755 116.671 84.2374 114.716C83.6119 113.426 83.6119 113.387 85.2146 110.964C86.0745 109.596 87.0127 107.876 87.2863 107.172C87.8335 105.648 88.029 105.569 88.928 106.586C89.3189 107.016 90.9215 107.993 92.5242 108.775L95.4167 110.221V112.723C95.4167 115.302 94.1659 119.133 92.7587 120.97L92.0942 121.869L90.1398 120.736Z" fill="#797979"/>
<path d="M29.5522 116.631C26.5423 115.771 24.6661 114.872 24.3925 114.208C24.0016 113.152 25.0961 108.149 26.2687 105.491C27.4023 103.028 30.2558 99.0414 31.233 98.6505C31.5066 98.5332 32.7965 98.885 34.1256 99.4323C37.3699 100.8 40.927 101.856 43.1551 102.168C44.1714 102.325 44.9923 102.442 44.9923 102.481C44.9923 102.481 44.6405 103.458 44.2105 104.553C43.3896 106.703 42.4515 110.885 42.0215 114.325C41.8652 115.654 41.5525 116.436 41.1225 116.631C39.7544 117.179 31.5457 117.179 29.5522 116.631Z" fill="#797979"/>
<path d="M122.584 116.749L121.02 116.397L120.355 112.136C120.004 109.791 119.261 106.664 118.714 105.139L117.776 102.403L119.574 102.129C121.958 101.817 127.118 100.175 129.424 99.0023L131.222 98.0642L132.903 99.9014C135.366 102.638 137.633 107.446 138.141 111.12C138.649 114.599 138.649 114.638 134.936 116.045C132.434 116.983 125.242 117.413 122.584 116.749Z" fill="#797979"/>
<path d="M11.3368 113.895C6.88071 112.332 3.71454 109.595 1.09559 104.983C-1.24973 100.918 0.313819 93.1 4.41812 88.4093C6.60709 85.9467 6.64618 85.9467 10.086 89.4647C12.7831 92.24 18.5292 96.618 20.4445 97.3606C21.0699 97.5561 20.9917 97.8688 19.7409 99.9014C17.9428 102.911 16.1447 107.641 15.3239 111.472C14.933 113.192 14.503 114.638 14.2685 114.716C14.073 114.755 12.744 114.403 11.3368 113.895Z" fill="#797979"/>
<path d="M148.03 114.521C147.913 114.403 147.796 113.895 147.796 113.387C147.796 111.12 145.568 104.748 143.183 100.214C142.362 98.6506 141.932 97.4388 142.167 97.3606C143.77 96.8134 149.359 92.5918 152.408 89.6211L156.004 86.0249L157.685 87.823C161.125 91.4973 162.61 95.3671 162.649 100.84C162.649 103.302 162.571 103.576 160.695 106.39C158.506 109.634 156.356 111.667 153.776 112.918C151.783 113.856 148.343 114.833 148.03 114.521Z" fill="#797979"/>
<path d="M52.3409 111.042C50.9337 110.69 51.7546 104.475 53.6308 101.191L54.5689 99.4715L58.9469 99.4324L63.3248 99.3933V103.419C63.3248 105.608 63.4421 107.563 63.5594 107.758C63.8721 108.306 59.2205 110.455 56.7579 110.924C54.608 111.315 53.5136 111.354 52.3409 111.042Z" fill="#797979"/>
<path d="M105.267 110.729C103.938 110.416 102.062 109.791 101.163 109.283L99.5211 108.384L99.4039 103.889L99.2866 99.3933H103.704L108.121 99.4324L109.411 101.934C110.388 103.928 110.74 105.139 110.935 107.641C111.17 110.729 111.131 110.807 110.231 111.042C108.942 111.394 108.121 111.354 105.267 110.729Z" fill="#797979"/>
<path d="M46.9468 95.1326C45.0315 94.5853 42.8425 93.6081 41.748 92.7872C41.0444 92.24 41.0444 92.1618 41.7089 90.911C42.8034 88.722 44.9924 86.2985 47.1423 84.8913L49.1749 83.5232L51.7547 85.2822C53.1619 86.2203 54.9209 87.1975 55.6636 87.4321L57.0317 87.9011L55.3118 90.481C54.3737 91.9273 53.3965 93.6472 53.1619 94.3899C52.771 95.6407 52.6929 95.6798 50.7384 95.6407C49.6049 95.6407 47.924 95.4062 46.9468 95.1326Z" fill="#797979"/>
<path d="M109.332 93.9989C109.02 93.0999 108.081 91.4191 107.339 90.2855C106.596 89.1129 105.971 88.1356 105.971 88.0575C105.971 87.9793 106.713 87.5493 107.652 87.1584C108.551 86.7284 110.231 85.7512 111.404 84.9695L113.515 83.5623L115.391 84.7349C117.502 86.1421 119.808 88.5656 120.864 90.6373C121.528 92.0054 121.528 92.0836 120.903 92.6699C119.065 94.2335 114.805 95.6798 111.795 95.6798C110.036 95.6798 109.958 95.6407 109.332 93.9989Z" fill="#797979"/>
<path d="M27.7933 91.4191C23.9626 90.2465 18.9983 86.5721 16.4185 83.015L15.324 81.5297L16.4575 79.8489C18.9983 76.1745 24.8225 72.1093 28.7705 71.2884C29.8259 71.0539 30.0213 71.1712 30.7249 72.5002C31.1549 73.2819 33.1875 75.6664 35.2592 77.7772L39.0508 81.5688L36.4319 83.9532C35.0247 85.2431 32.9921 87.5493 31.8976 89.0347C29.9432 91.7318 29.5914 91.9664 27.7933 91.4191Z" fill="#797979"/>
<path d="M131.574 89.9335C130.948 88.9171 128.916 86.5718 127.079 84.7346L123.717 81.4512L127.079 78.0896C128.955 76.2524 131.027 73.9462 131.73 72.8908C133.216 70.7409 133.411 70.7409 137.906 72.8517C140.916 74.298 144.434 77.2296 146.232 79.8876L147.405 81.5294L145.88 83.4447C142.714 87.4709 137.711 90.9107 134.076 91.5752C132.825 91.8097 132.668 91.6924 131.574 89.9335Z" fill="#797979"/>
<path d="M47.2986 78.168C44.0152 76.0572 40.3799 71.0148 41.5526 70.1939C43.8197 68.5913 48.5104 67.145 51.4029 67.145C52.4583 67.145 52.6929 67.3405 53.3574 68.9431C53.7483 69.9594 54.6864 71.6402 55.39 72.6956C56.1327 73.7901 56.719 74.7282 56.719 74.8064C56.719 74.8846 55.7027 75.4709 54.4909 76.0963C53.2401 76.7218 51.6375 77.699 50.8948 78.2462C50.1521 78.7935 49.4094 79.2625 49.2921 79.2625C49.1749 79.2625 48.2758 78.7544 47.2986 78.168Z" fill="#797979"/>
<path d="M110.075 77.269C108.355 76.2137 106.713 75.2364 106.401 75.041C105.971 74.8065 106.088 74.4156 106.948 73.2038C107.534 72.3439 108.511 70.624 109.176 69.334L110.309 67.0669L112.889 67.3405C115.938 67.6532 118.127 68.3959 120.16 69.7249L121.606 70.6631L120.785 72.3439C119.73 74.4156 116.759 77.5427 114.883 78.5199C114.062 78.9108 113.358 79.2626 113.319 79.2235C113.241 79.2235 111.795 78.3244 110.075 77.269Z" fill="#797979"/>
<path d="M4.73094 74.6892C1.44748 71.093 0.0402832 67.3796 0.0402832 62.259C0.0402832 59.601 0.118461 59.3664 1.99472 56.513C3.05011 54.9103 4.57458 52.995 5.39545 52.2914C7.31079 50.6106 12.2751 48.3043 13.6432 48.4607C14.5813 48.5779 14.7377 48.8125 15.1676 50.8842C15.8321 54.4022 17.1612 57.9983 19.1156 61.829C20.2492 64.018 20.7573 65.3861 20.4446 65.5034C18.842 66.0115 13.3695 70.2331 10.3206 73.2429L6.68537 76.8391L4.73094 74.6892Z" fill="#797979"/>
<path d="M153.542 74.3375C151.079 71.6404 145.802 67.497 143.261 66.2852L141.659 65.4643L143.105 62.8454C144.942 59.5229 146.388 55.8094 147.248 52.1742C147.6 50.6497 147.991 49.1252 148.069 48.8125C148.46 47.4053 155.027 50.1416 157.724 52.8387C158.623 53.7377 160.069 55.5749 161.008 56.9821C162.532 59.3274 162.649 59.7183 162.649 62.0636C162.61 67.067 161.477 70.3895 158.662 73.9466C156.122 77.191 156.122 77.191 153.542 74.3375Z" fill="#797979"/>
<path d="M29.6303 62.7281C28.6922 61.6336 27.4413 59.8746 26.855 58.8583C25.7214 56.7866 24.2751 51.7441 24.2751 49.6724C24.2751 48.4607 24.4315 48.2652 26.1514 47.5226C30.4121 45.6854 36.1581 45.06 40.028 46.0763L41.6697 46.5453L42.3733 50.806C42.7642 53.1904 43.5069 56.2784 44.015 57.6856C44.5232 59.0928 44.9141 60.3046 44.875 60.3827C44.7968 60.4218 43.4287 60.7345 41.7479 61.0863C38.8162 61.6727 34.6337 63.119 32.4447 64.2134C31.3893 64.7998 31.3502 64.7607 29.6303 62.7281Z" fill="#797979"/>
<path d="M129.385 63.8616C127.235 62.8062 121.333 60.8908 120.238 60.8908C119.808 60.8908 119.066 60.7736 118.636 60.6563L117.815 60.4218L118.753 57.7247C119.261 56.2393 119.965 53.1122 120.316 50.7669L120.981 46.5062L122.896 46.0762C127.04 45.1381 132.668 45.7635 136.616 47.6007L138.493 48.4997L138.258 51.0014C137.789 55.4184 135.209 60.9299 132.278 63.7052L131.183 64.7215L129.385 63.8616Z" fill="#797979"/>
<path d="M53.4355 61.3209C52.2238 58.7019 51.6765 56.3175 51.6375 53.6986V51.7832L55.0773 51.9786C57.8135 52.135 58.9861 52.4086 60.8233 53.3077L63.1686 54.4412L63.2859 58.9364L63.4032 63.4316L58.908 63.4707H54.4518L53.4355 61.3209Z" fill="#797979"/>
<path d="M99.3257 59.0536V54.7148L100.616 53.8939C102.414 52.7994 106.088 51.9004 108.785 51.9004H111.052V53.6203C111.052 56.2392 110.388 59.1318 109.254 61.399L108.277 63.4707H103.782L99.3257 63.4316V59.0536Z" fill="#797979"/>
<path d="M87.2081 55.8483C86.9345 55.0665 85.9573 53.2685 85.0583 51.8613L83.3774 49.2814L84.4719 47.5224C85.7228 45.5289 88.6935 42.7927 90.7261 41.7373L92.1333 41.0337L92.9542 42.2454C94.2441 44.1608 95.2995 47.1706 95.5731 49.7505C95.8468 52.4085 95.7295 52.7212 93.9705 53.4248C93.2669 53.6984 91.5861 54.6757 90.218 55.5747L87.7163 57.2164L87.2081 55.8483Z" fill="#797979"/>
<path d="M73.3315 56.044C72.667 55.5358 71.0253 54.5195 69.6572 53.855L67.1555 52.5651L67.3901 49.5552C67.5464 47.0927 67.82 45.9982 68.9145 44.0046C70.439 41.1121 70.9471 40.9948 73.7615 42.9493C75.5205 44.1219 78.9994 48.1871 78.9994 49.008C78.9994 49.2425 78.1395 50.9234 77.045 52.7214C75.9896 54.5195 75.0905 56.2394 75.0905 56.513C75.0905 57.2166 74.6606 57.0994 73.3315 56.044Z" fill="#797979"/>
<path d="M56.1325 43.6919C54.2172 43.0665 51.2464 42.4801 49.6047 42.3238L46.5558 42.0111L46.0867 40.4084C45.8522 39.5485 45.6567 37.0468 45.6567 34.8969C45.6958 31.6526 45.8522 30.4799 46.7512 28.0564C47.3376 26.4538 47.963 24.9684 48.1584 24.7339C48.5884 24.3039 51.5982 24.4212 53.7872 24.9684C56.4452 25.672 60.745 27.9392 62.6994 29.6981L64.5366 31.4181L63.1294 34.8969C62.3476 36.8514 61.4095 39.8221 61.0577 41.5029C60.6668 43.2228 60.2368 44.6691 60.0023 44.7082C59.8069 44.7473 58.087 44.2782 56.1325 43.6919Z" fill="#797979"/>
<path d="M102.296 44.4346C102.218 44.1219 101.866 42.5583 101.515 40.9557C101.163 39.353 100.264 36.5388 99.5602 34.7798L98.2312 31.4964L99.7948 30.0892C100.694 29.2683 102.023 28.2129 102.805 27.7048C104.876 26.2585 110.153 24.5386 112.46 24.5386C114.453 24.5386 114.492 24.5777 115.235 26.2194C116.798 29.5028 117.424 32.9036 117.189 36.3434C117.072 38.1415 116.798 40.1348 116.525 40.7993C116.095 41.972 115.977 42.0502 113.28 42.2847C110.896 42.5192 105.424 43.8092 103.117 44.7082C102.726 44.8255 102.414 44.7082 102.296 44.4346Z" fill="#797979"/>
<path d="M18.7247 39.1576C18.4511 38.4931 18.2556 36.1087 18.2556 33.5288L18.2166 29.0336L19.9755 25.5156C21.5 22.5449 21.9691 21.8804 23.4935 21.0204C28.6532 18.0497 33.2266 17.2288 37.7218 18.4406L40.1845 19.1442L39.2464 22.1149C37.9955 26.0238 37.1746 31.0662 37.1746 34.6233C37.1746 37.2813 37.1355 37.4768 36.4319 37.2423C34.5556 36.6559 24.0017 38.4149 19.8583 40.0175C19.3892 40.1739 19.0765 39.9393 18.7247 39.1576Z" fill="#797979"/>
<path d="M139.782 39.1185C135.913 37.9849 132.473 37.4376 128.564 37.4376H125.515V34.6623C125.515 30.5189 124.499 24.5774 123.209 21.294C122.505 19.4568 122.662 19.1832 125.046 18.5187C128.369 17.6196 131.222 17.7369 134.505 18.9096C139.782 20.7858 140.721 21.5676 142.714 25.4765C144.395 28.8381 144.473 29.1117 144.59 32.9033C144.708 36.7731 144.121 39.8221 143.261 40.0176C143.066 40.0566 141.502 39.6658 139.782 39.1185Z" fill="#797979"/>
<path d="M78.3742 36.0695C76.6934 34.3105 74.309 32.1997 73.0972 31.4179L70.8691 29.9716L71.26 28.5254C72.3936 24.3038 76.0289 19.1832 79.6641 16.6815L81.384 15.4697L82.9866 16.5642C86.5828 19.0659 90.2572 24.2647 91.4298 28.5254C91.8207 29.8935 91.7816 29.9716 90.3744 30.9098C88.3027 32.2779 84.8629 35.3659 83.0257 37.4767L81.4622 39.2747L78.3742 36.0695Z" fill="#797979"/>
<path d="M61.8004 19.2613C58.5952 17.5805 52.6146 15.4697 49.6048 14.9616C48.7839 14.8443 48.1194 14.6098 48.1194 14.4143C48.1194 14.258 48.393 13.1635 48.7448 11.9908C50.0347 7.57379 52.8882 4.17307 57.5789 1.35868C59.9633 -0.0876035 60.1196 -0.126692 62.7777 0.10784C68.3673 0.615995 72.1199 2.17954 75.0906 5.18938L76.7323 6.8702L73.8398 9.76276C70.4781 13.0462 68.7973 15.1179 66.6865 18.5968C65.8657 19.9258 65.2012 21.0203 65.1621 20.9812C65.123 20.9812 63.6376 20.1995 61.8004 19.2613Z" fill="#797979"/>
<path d="M95.4167 17.6197C94.2441 15.7434 91.6251 12.5381 89.6316 10.5055L85.9573 6.75301L87.9899 4.87676C91.4297 1.71056 95.104 0.342461 100.616 0.186106C102.805 0.107928 103.352 0.264283 105.267 1.43694C108.746 3.54773 110.935 5.65853 112.381 8.23839C113.632 10.4664 114.844 14.2581 114.414 14.6489C114.336 14.7271 113.007 15.0789 111.482 15.3916C108.121 16.0952 104.524 17.4242 100.772 19.3396C99.2084 20.1604 97.8793 20.864 97.7621 20.9031C97.6448 20.9422 96.5894 19.4569 95.4167 17.6197Z" fill="#797979"/>
</g>
<defs>
<clipPath id="clip0_802_1808">
<rect width="163" height="163" fill="white"/>
</clipPath>
</defs>
</svg>
