<svg width="78" height="35" viewBox="0 0 78 35" fill="none" xmlns="http://www.w3.org/2000/svg">
<path d="M9 4H17.6577V8.55669H13.5567V25.8721H17.6577V30.4288H9V4Z" fill="#797979"/>
<path d="M68.2369 4H59.5792V8.55669H63.6802V25.8721H59.5792V30.4288H68.2369V4Z" fill="#797979"/>
<path d="M26.0999 26.3922C26.7752 26.6075 27.4407 26.7151 28.0965 26.7151C28.6445 26.7151 29.2269 26.632 29.8434 26.4656C30.4698 26.309 31.0326 25.9909 31.5317 25.5114C32.0308 25.022 32.3734 24.3027 32.5593 23.3533L33.1465 26.4215H36.8754V11.2419H31.9134V21.1366C31.9134 21.7434 31.7079 22.2327 31.2968 22.6046C30.8857 22.9667 30.3279 23.1478 29.6232 23.1478C28.8892 23.1478 28.3265 22.9618 27.935 22.5899C27.5435 22.2082 27.3478 21.7336 27.3478 21.1659V11.2419H22.3417V21.8412C22.3417 22.6242 22.513 23.3191 22.8555 23.9259C23.2079 24.5229 23.6679 25.0318 24.2355 25.4526C24.8031 25.8637 25.4246 26.1769 26.0999 26.3922Z" fill="#797979"/>
<path fill-rule="evenodd" clip-rule="evenodd" d="M40.9185 24.5718C42.0538 26.0007 43.6539 26.7151 45.719 26.7151C46.3943 26.7151 46.9913 26.6271 47.51 26.4509C48.0287 26.2747 48.4789 26.035 48.8606 25.7316C49.2423 25.4184 49.5604 25.0563 49.8148 24.6452C50.0693 24.2244 50.2748 23.7791 50.4314 23.3093L51.0186 26.4215H54.586V4.60637H49.5799V13.1357C49.3744 12.7736 49.1151 12.4604 48.8019 12.1962C48.4985 11.9221 48.151 11.697 47.7596 11.5209C47.3779 11.3349 46.9717 11.193 46.5411 11.0951C46.1105 10.9973 45.6603 10.9483 45.1905 10.9483C43.9182 10.9483 42.8367 11.2664 41.9461 11.9026C41.0555 12.5387 40.3753 13.4391 39.9055 14.6038C39.4455 15.7684 39.2155 17.1484 39.2155 18.7437C39.2155 21.2002 39.7832 23.1429 40.9185 24.5718ZM48.8753 22.1789C48.4055 22.8444 47.7351 23.1772 46.8641 23.1772C46.042 23.1772 45.3715 22.8297 44.8528 22.1348C44.3341 21.44 44.0748 20.2998 44.0748 18.7143C44.0748 17.1777 44.3439 16.0963 44.8822 15.4699C45.4205 14.8338 46.086 14.5157 46.8787 14.5157C47.4562 14.5157 47.9455 14.6625 48.3468 14.9561C48.7481 15.2497 49.0514 15.7097 49.257 16.3361C49.4723 16.9526 49.5799 17.7454 49.5799 18.7143C49.5799 20.3585 49.3451 21.5134 48.8753 22.1789Z" fill="#797979"/>
</svg>
