<svg width="92" height="44" viewBox="0 0 92 44" fill="none" xmlns="http://www.w3.org/2000/svg">
<g clip-path="url(#clip0_830_685)">
<path d="M82.6 22.1H79.5C77.5 22.1 76.4 23.6 76.4 26.2V35.5H70.4V22.1H67.9C65.9 22.1 64.8 23.6 64.8 26.2V35.5H58.8V17.1H64.8V19.9C65.8 17.7 67.1 17.1 69.1 17.1H76.4V19.9C77.4 17.7 78.7 17.1 80.7 17.1H82.7L82.6 22.1ZM57.4 27.7H45C45.3 29.8 46.6 30.9 48.7 30.9C50.3 30.9 51.4 30.2 51.8 29.1L57.1 30.6C55.8 33.8 52.6 35.7 48.7 35.7C42.2 35.7 39.2 30.6 39.2 26.2C39.2 21.9 41.8 16.8 48.3 16.8C55.2 16.8 57.5 22 57.5 25.9C57.5 26.8 57.5 27.3 57.4 27.7ZM51.7 24.2C51.6 22.6 50.4 21.2 48.4 21.2C46.5 21.2 45.4 22 45 24.2H51.7ZM28.8 35.5H34L40.6 17.2H34.6L31.4 27.9L28.2 17.1H22.2L28.8 35.5ZM4.4 35.5H10.3V22.1H16V35.5H21.9V17.1H10.3V16C10.3 14.8 11.2 14 12.5 14H16V9H11.6C7.3 9 4.4 11.7 4.4 15.6V17.1H1V22.1H4.4V35.5Z" fill="#797979"/>
<g opacity="0.4">
<path d="M86.3001 36.0001C88.3001 36.0001 90.0001 34.3001 90.0001 32.3001C90.0001 30.3001 88.3001 28.6001 86.3001 28.6001C84.3001 28.6001 82.6001 30.3001 82.6001 32.3001C82.6001 34.3001 84.3001 36.0001 86.3001 36.0001Z" fill="#797979"/>
</g>
</g>
<defs>
<clipPath id="clip0_830_685">
<rect width="89" height="27" fill="white" transform="translate(1 9)"/>
</clipPath>
</defs>
</svg>
