<svg width="131" height="44" viewBox="0 0 131 44" fill="none" xmlns="http://www.w3.org/2000/svg">
<g clip-path="url(#clip0_625_12)">
<path d="M60.8789 22.6294L56.1795 14.083H52.7206V30.2836H55.1498V16.9491L60.2831 26.2502H61.3373L66.4461 16.9491V30.2836H68.8509V14.083H65.4836L60.8789 22.6294Z" fill="#797979"/>
<path d="M77.2353 18.049C76.67 18.049 76.117 18.1131 75.5731 18.2445C75.0292 18.3759 74.522 18.5776 74.0483 18.8526C73.5747 19.1276 73.1775 19.4759 72.8567 19.8945C72.5359 20.3162 72.3311 20.8142 72.2395 21.3948H74.7145C74.8061 21.0892 74.9742 20.8448 75.2186 20.6615C75.4631 20.4781 75.7564 20.3437 76.1017 20.2612C76.447 20.1787 76.8075 20.1359 77.1895 20.1359C77.8311 20.1359 78.3475 20.2612 78.7356 20.5148C79.1236 20.7684 79.4108 21.1167 79.5942 21.569C79.7775 22.0212 79.8692 22.5437 79.8692 23.1395H76.9145C76.2422 23.1395 75.5975 23.1976 74.9772 23.3106C74.36 23.4237 73.8131 23.6162 73.3395 23.882C72.8659 24.1509 72.487 24.5237 72.2058 25.0034C71.9217 25.4831 71.7811 26.0912 71.7811 26.8245C71.7811 27.4356 71.9003 27.9673 72.1356 28.4165C72.3709 28.8656 72.6886 29.2415 73.0859 29.5378C73.4831 29.8373 73.9383 30.0573 74.4486 30.2009C74.9589 30.3445 75.4906 30.4178 76.0406 30.4178C76.4378 30.4178 76.8717 30.3781 77.3453 30.3017C77.8189 30.2253 78.2956 30.0665 78.7784 29.822C79.2581 29.5776 79.6767 29.2201 80.0281 28.7465L80.1197 30.2803H82.1578V23.7506C82.1578 21.9784 81.7728 20.5851 80.9997 19.5706C80.2267 18.5562 78.9708 18.0459 77.2322 18.0459L77.2353 18.049ZM79.8692 25.4495C79.8692 26.0606 79.7225 26.5923 79.4353 27.0415C79.145 27.4937 78.7386 27.8359 78.2222 28.0712C77.7028 28.3095 77.1009 28.4256 76.4134 28.4256C76.0314 28.4256 75.6647 28.3615 75.3133 28.2301C74.962 28.1017 74.6809 27.9062 74.467 27.6465C74.2531 27.3867 74.1461 27.0506 74.1461 26.6381C74.1461 26.2256 74.25 25.8834 74.4547 25.6542C74.6595 25.4251 74.9345 25.2601 75.2797 25.1623C75.622 25.0645 76.0039 25.0034 76.4256 24.979C76.8442 24.9545 77.2781 24.9453 77.7211 24.9453H79.8753V25.4495H79.8692Z" fill="#797979"/>
<path d="M88.3941 14.7247H86.0353V18.2081H84.1347V20.3164H86.0353V26.342C86.0353 27.2739 86.1758 28.0286 86.46 28.6092C86.7411 29.1897 87.1811 29.6145 87.7769 29.8803C88.3728 30.1492 89.1428 30.2806 90.09 30.2806H91.3489V28.1967H90.4108C89.5858 28.1967 89.045 28.0164 88.7853 27.6589C88.5255 27.3014 88.3941 26.7606 88.3941 26.0425V20.3133H91.4405V18.205H88.3941V14.7217V14.7247Z" fill="#797979"/>
<path d="M102.908 19.9495C102.459 19.369 101.888 18.9076 101.2 18.5623C100.513 18.2201 99.7028 18.0459 98.7709 18.0459C97.5486 18.0459 96.5067 18.3148 95.645 18.8465C94.7803 19.3812 94.1264 20.1145 93.6742 21.0465C93.225 21.9784 92.9989 23.054 92.9989 24.2762C92.9989 25.4984 93.2159 26.5495 93.6528 27.4723C94.0897 28.3951 94.7345 29.1192 95.59 29.6387C96.4456 30.1581 97.5059 30.4178 98.7739 30.4178C99.5684 30.4178 100.329 30.2956 101.053 30.0512C101.778 29.8067 102.398 29.4217 102.908 28.8931C103.418 28.3645 103.776 27.6984 103.974 26.8887H101.591C101.469 27.2401 101.258 27.5273 100.962 27.7473C100.662 27.9673 100.329 28.1292 99.9533 28.227C99.5775 28.3278 99.1925 28.3767 98.7953 28.3767C98.0772 28.3767 97.4722 28.227 96.9864 27.9306C96.4975 27.6342 96.1186 27.2309 95.8528 26.7267C95.587 26.2226 95.4281 25.6665 95.3822 25.0553H104.112C104.127 24.8873 104.143 24.7253 104.158 24.5726C104.173 24.4198 104.182 24.2609 104.182 24.0928C104.213 23.329 104.121 22.5926 103.907 21.8806C103.693 21.1717 103.36 20.524 102.911 19.9434L102.908 19.9495ZM95.4281 23.1792C95.4739 22.6292 95.6236 22.122 95.8742 21.6545C96.1278 21.1901 96.4853 20.8112 96.9497 20.5209C97.4142 20.2306 98.0008 20.084 98.7036 20.084C99.3453 20.084 99.8953 20.2184 100.354 20.4842C100.812 20.7531 101.169 21.1198 101.429 21.5842C101.689 22.0487 101.826 22.5803 101.842 23.1762H95.425L95.4281 23.1792Z" fill="#797979"/>
<path d="M112.796 18.0493C112.276 18.0493 111.778 18.1104 111.308 18.2326C110.834 18.3549 110.397 18.5535 110.003 18.8285C109.606 19.1035 109.254 19.4763 108.949 19.9499L108.836 18.2082H106.614V30.2838H108.973V24.4629C108.973 23.6532 109.108 22.9352 109.374 22.3088C109.639 21.6824 110.061 21.1935 110.632 20.8421C111.204 20.4907 111.928 20.3165 112.799 20.3165H113.532V18.0493H112.799H112.796Z" fill="#797979"/>
<path d="M116.484 13.5791C116.041 13.5791 115.674 13.7197 115.384 14.0038C115.094 14.288 114.95 14.6485 114.95 15.0916C114.95 15.5347 115.091 15.8983 115.375 16.1794C115.659 16.4605 116.029 16.6041 116.487 16.6041C116.945 16.6041 117.3 16.4635 117.599 16.1794C117.899 15.8952 118.045 15.5347 118.045 15.0916C118.045 14.6485 117.889 14.2849 117.575 14.0038C117.26 13.7227 116.899 13.5791 116.487 13.5791H116.484Z" fill="#797979"/>
<path d="M117.672 18.208H115.314V30.2836H117.672V18.208Z" fill="#797979"/>
<path d="M129.394 19.5706C128.621 18.5562 127.365 18.0459 125.623 18.0459C125.058 18.0459 124.505 18.1101 123.961 18.2415C123.42 18.3728 122.91 18.5745 122.436 18.8495C121.963 19.1245 121.565 19.4728 121.244 19.8915C120.924 20.3131 120.716 20.8112 120.624 21.3917H123.099C123.191 21.0862 123.359 20.8417 123.603 20.6584C123.848 20.4751 124.141 20.3406 124.486 20.2581C124.832 20.1756 125.192 20.1328 125.574 20.1328C126.216 20.1328 126.732 20.2581 127.12 20.5117C127.508 20.7653 127.796 21.1137 127.979 21.5659C128.162 22.0181 128.254 22.5406 128.254 23.1365H125.299C124.627 23.1365 123.982 23.1945 123.362 23.3076C122.745 23.4206 122.198 23.6131 121.724 23.879C121.251 24.1478 120.872 24.5206 120.591 25.0003C120.306 25.4801 120.166 26.0881 120.166 26.8215C120.166 27.4326 120.285 27.9642 120.52 28.4134C120.756 28.8626 121.073 29.2384 121.471 29.5348C121.868 29.8342 122.323 30.0542 122.833 30.1978C123.344 30.3415 123.875 30.4148 124.425 30.4148C124.822 30.4148 125.256 30.3751 125.73 30.2987C126.204 30.2223 126.68 30.0634 127.163 29.819C127.643 29.5745 128.061 29.217 128.413 28.7434L128.504 30.2773H130.543V23.7476C130.543 21.9753 130.158 20.582 129.384 19.5676L129.394 19.5706ZM128.26 25.4465C128.26 26.0576 128.113 26.5892 127.826 27.0384C127.536 27.4906 127.129 27.8328 126.613 28.0681C126.094 28.3065 125.492 28.4226 124.804 28.4226C124.422 28.4226 124.056 28.3584 123.704 28.227C123.353 28.0987 123.072 27.9031 122.855 27.6434C122.641 27.3837 122.534 27.0476 122.534 26.6351C122.534 26.2226 122.638 25.8803 122.843 25.6512C123.047 25.422 123.322 25.257 123.668 25.1592C124.01 25.0615 124.392 25.0003 124.813 24.9759C125.232 24.9515 125.666 24.9423 126.109 24.9423H128.263V25.4465H128.26Z" fill="#797979"/>
<path d="M22 0C9.85111 0 0 9.85111 0 22C0 34.1489 9.85111 44 22 44C34.1489 44 44 34.1489 44 22C44 9.85111 34.1489 0 22 0ZM12.375 30.25C9.94583 30.25 7.975 28.2792 7.975 25.85C7.975 23.4208 9.94583 21.45 12.375 21.45C14.8042 21.45 16.775 23.4208 16.775 25.85C16.775 28.2792 14.8042 30.25 12.375 30.25ZM25.575 22.55V26.95C25.575 28.7711 24.0992 30.25 22.275 30.25C21.9328 30.25 21.6028 30.1981 21.2942 30.1033C19.9497 29.6847 18.975 28.4319 18.975 26.95V22.55C18.975 21.0406 18.5411 19.635 17.7894 18.4464C16.61 16.5794 14.6514 15.2564 12.3719 14.9294C13.6675 14.1808 15.1708 13.75 16.7719 13.75C18.3731 13.75 19.9742 14.2083 21.2972 15.0028C23.7111 16.4542 25.3703 19.0269 25.5536 22H25.5719V22.55H25.575ZM36.025 22.55V26.95C36.025 28.7711 34.5461 30.25 32.725 30.25C32.3828 30.25 32.0528 30.1981 31.7442 30.1033C30.3997 29.6847 29.425 28.4319 29.425 26.95V22.55C29.425 22.0611 29.4128 21.6242 29.3944 21.2331C29.3303 19.965 29.1744 19.2103 29.0492 18.7856C28.2272 16.4511 26.0792 14.7431 23.5064 14.5719C24.6369 14.0433 25.8958 13.7469 27.2281 13.7469C31.9031 13.7469 35.7256 17.3922 36.0097 21.9969H36.0281V22.5469L36.025 22.55Z" fill="#797979"/>
</g>
<defs>
<clipPath id="clip0_625_12">
<rect width="130.552" height="44" fill="white"/>
</clipPath>
</defs>
</svg>
