<svg width="278" height="81" viewBox="0 0 278 81" fill="none" xmlns="http://www.w3.org/2000/svg">
<path d="M50.0303 42.8592C53.751 49.3914 57.403 55.8167 61.0095 62.1621C60.4694 62.9735 59.844 62.76 59.31 62.766C56.734 62.795 54.1563 62.7376 51.5819 62.8104C49.3814 62.8726 47.8892 61.8563 46.8324 59.9872C42.135 51.6788 37.4336 43.3726 32.7234 35.0716C32.0335 33.8557 31.6037 32.6202 32.3467 31.29C33.9833 28.3599 35.6464 25.445 37.3147 22.5334C37.4182 22.3527 37.6609 22.2542 38.0947 21.9209C42.0807 28.9179 46.0212 35.8352 50.0303 42.8592Z" fill="#797979"/>
<path d="M29.8881 55.4931C28.8298 57.3881 27.7902 59.1383 26.8621 60.9502C26.1969 62.2491 25.3 62.8479 23.8489 62.8115C20.8535 62.7363 17.855 62.801 14.8579 62.7856C14.2796 62.7826 13.6548 62.9214 13.1434 62.4458C12.903 61.7518 13.3368 61.2489 13.6219 60.7291C16.2619 55.9156 18.9535 51.1321 21.547 46.2919C22.4631 44.5823 23.6456 43.7674 25.5798 43.8308C28.9732 43.9421 32.3724 43.8619 36.3152 43.8619C34.0293 47.9993 31.9919 51.687 29.8881 55.4931Z" fill="#797979"/>
<path d="M11.6004 49.4991C11.6001 53.4829 11.5619 57.2939 11.6203 61.1034C11.6398 62.3785 11.179 62.8443 9.87025 62.8115C7.14915 62.7432 4.42462 62.7566 1.7025 62.7981C0.514125 62.8163 -0.00715948 62.4134 7.42098e-05 61.1948C0.0384499 54.7289 -0.0259431 48.2622 0.0522363 41.797C0.0852052 39.0705 1.34334 36.9216 3.8913 35.5998C6.2745 34.3634 8.67755 33.1738 11.6003 32.1439C11.6003 38.0689 11.6003 43.6972 11.6004 49.4991Z" fill="#797979"/>
<path d="M1.96855e-05 25.5181C-0.00695113 21.8888 1.83776 19.5398 4.94654 19.0609C7.66547 18.6421 10.5195 20.4273 11.352 23.0675C12.3583 26.2589 10.4467 29.6887 7.17181 30.5151C3.90195 31.3403 0.389739 29.0462 1.96855e-05 25.5181Z" fill="#797979"/>
<path d="M75.5356 59.8677C75.5257 62.8036 75.5257 62.8056 72.6785 62.8051C70.3585 62.8047 68.0375 62.7573 65.719 62.8117C64.4367 62.8418 63.9053 62.3905 63.9149 61.0784C63.9616 54.6797 63.8996 48.2801 63.9736 41.8819C64.0086 38.849 65.2818 36.4377 68.1809 35.059C69.8949 34.244 71.5846 33.3775 73.3143 32.5969C75.1588 31.7645 75.5232 31.9978 75.5264 33.9825C75.537 40.4402 75.5227 46.8978 75.5213 53.3555C75.5208 55.4689 75.5303 57.5824 75.5356 59.8677Z" fill="#797979"/>
<path d="M63.9148 25.5181C63.9078 21.8888 65.7525 19.5398 68.8613 19.0609C71.5802 18.6421 74.4343 20.4273 75.2668 23.0675C76.273 26.2589 74.3615 29.6887 71.0866 30.5151C67.8167 31.3403 64.3045 29.0462 63.9148 25.5181Z" fill="#797979"/>
<path d="M95.2795 37.9857H92.1418V21.0913H95.2795V37.9857Z" fill="#797979"/>
<path d="M98.9041 37.9857V25.9984H100.659C101.031 25.9984 101.275 26.1737 101.391 26.5242L101.589 27.4705C101.829 27.2213 102.08 26.9954 102.344 26.7929C102.615 26.5904 102.898 26.4151 103.192 26.2671C103.494 26.1191 103.816 26.0062 104.157 25.9283C104.498 25.8504 104.869 25.8115 105.272 25.8115C105.923 25.8115 106.5 25.9244 107.004 26.1503C107.507 26.3684 107.926 26.6799 108.259 27.085C108.6 27.4822 108.855 27.9612 109.026 28.522C109.204 29.0751 109.293 29.6865 109.293 30.3563V37.9857H106.423V30.3563C106.423 29.6242 106.252 29.0595 105.911 28.6622C105.578 28.2572 105.075 28.0547 104.401 28.0547C103.905 28.0547 103.44 28.1676 103.006 28.3935C102.572 28.6194 102.162 28.9271 101.774 29.3165V37.9857H98.9041Z" fill="#797979"/>
<path d="M119.191 28.3351C119.113 28.4597 119.032 28.5493 118.947 28.6038C118.862 28.6506 118.753 28.6739 118.621 28.6739C118.482 28.6739 118.331 28.635 118.168 28.5571C118.013 28.4792 117.831 28.3935 117.622 28.3001C117.413 28.1988 117.173 28.1092 116.902 28.0313C116.638 27.9534 116.324 27.9145 115.96 27.9145C115.395 27.9145 114.949 28.0352 114.624 28.2767C114.298 28.5181 114.136 28.8336 114.136 29.223C114.136 29.4801 114.217 29.6982 114.38 29.8773C114.55 30.0487 114.771 30.2006 115.042 30.333C115.321 30.4654 115.635 30.5861 115.984 30.6952C116.332 30.7964 116.689 30.9094 117.053 31.034C117.417 31.1586 117.773 31.3027 118.122 31.4663C118.47 31.6221 118.78 31.8246 119.051 32.0738C119.33 32.3153 119.551 32.6074 119.714 32.9501C119.884 33.2928 119.969 33.7056 119.969 34.1885C119.969 34.7649 119.865 35.2985 119.656 35.7892C119.447 36.2721 119.141 36.6927 118.738 37.051C118.335 37.4015 117.835 37.678 117.239 37.8805C116.65 38.0752 115.972 38.1726 115.205 38.1726C114.794 38.1726 114.391 38.1337 113.996 38.0558C113.609 37.9857 113.233 37.8844 112.869 37.752C112.513 37.6196 112.18 37.4638 111.87 37.2847C111.568 37.1055 111.3 36.9108 111.068 36.7005L111.73 35.6022C111.815 35.4698 111.916 35.3686 112.032 35.2985C112.149 35.2284 112.296 35.1933 112.474 35.1933C112.652 35.1933 112.819 35.2439 112.974 35.3452C113.136 35.4465 113.322 35.5555 113.531 35.6723C113.741 35.7892 113.985 35.8982 114.264 35.9995C114.55 36.1007 114.911 36.1514 115.344 36.1514C115.685 36.1514 115.976 36.1124 116.216 36.0345C116.464 35.9488 116.665 35.8398 116.82 35.7074C116.983 35.575 117.099 35.4231 117.169 35.2517C117.246 35.0726 117.285 34.8895 117.285 34.7026C117.285 34.4222 117.2 34.1924 117.029 34.0133C116.867 33.8341 116.646 33.6784 116.367 33.5459C116.096 33.4135 115.782 33.2967 115.426 33.1954C115.077 33.0864 114.717 32.9696 114.345 32.8449C113.981 32.7203 113.621 32.5762 113.264 32.4126C112.916 32.2413 112.602 32.0271 112.323 31.77C112.052 31.513 111.831 31.1976 111.661 30.8237C111.498 30.4498 111.416 29.9981 111.416 29.4684C111.416 28.9777 111.513 28.5104 111.707 28.0664C111.901 27.6224 112.183 27.2369 112.555 26.9097C112.935 26.5748 113.404 26.31 113.961 26.1152C114.527 25.9127 115.178 25.8115 115.914 25.8115C116.735 25.8115 117.483 25.9478 118.157 26.2204C118.831 26.493 119.392 26.8513 119.842 27.2953L119.191 28.3351Z" fill="#797979"/>
<path d="M126.176 38.1726C125.145 38.1726 124.351 37.8805 123.793 37.2963C123.235 36.7044 122.957 35.8904 122.957 34.8545V28.1599H121.748C121.593 28.1599 121.457 28.1092 121.341 28.008C121.233 27.9067 121.179 27.7548 121.179 27.5523V26.4073L123.096 26.0919L123.7 22.8205C123.731 22.6647 123.801 22.544 123.909 22.4583C124.026 22.3726 124.169 22.3298 124.339 22.3298H125.827V26.1036H128.965V28.1599H125.827V34.6559C125.827 35.0297 125.92 35.3218 126.106 35.5321C126.292 35.7424 126.54 35.8476 126.85 35.8476C127.028 35.8476 127.175 35.8281 127.291 35.7892C127.415 35.7424 127.52 35.6957 127.605 35.649C127.698 35.6022 127.779 35.5594 127.849 35.5204C127.919 35.4737 127.988 35.4503 128.058 35.4503C128.143 35.4503 128.213 35.4737 128.267 35.5204C128.322 35.5594 128.38 35.6217 128.442 35.7074L129.302 37.1094C128.883 37.4599 128.403 37.7247 127.861 37.9039C127.318 38.083 126.757 38.1726 126.176 38.1726Z" fill="#797979"/>
<path d="M134.304 25.9984V37.9857H131.433V25.9984H134.304ZM134.734 22.505C134.734 22.7543 134.683 22.988 134.583 23.2061C134.482 23.4241 134.346 23.615 134.176 23.7785C134.013 23.9421 133.819 24.0745 133.595 24.1758C133.37 24.2693 133.13 24.316 132.874 24.316C132.626 24.316 132.39 24.2693 132.165 24.1758C131.948 24.0745 131.759 23.9421 131.596 23.7785C131.433 23.615 131.302 23.4241 131.201 23.2061C131.108 22.988 131.061 22.7543 131.061 22.505C131.061 22.248 131.108 22.0065 131.201 21.7807C131.302 21.5548 131.433 21.3601 131.596 21.1965C131.759 21.0329 131.948 20.9044 132.165 20.8109C132.39 20.7097 132.626 20.6591 132.874 20.6591C133.13 20.6591 133.37 20.7097 133.595 20.8109C133.819 20.9044 134.013 21.0329 134.176 21.1965C134.346 21.3601 134.482 21.5548 134.583 21.7807C134.683 22.0065 134.734 22.248 134.734 22.505Z" fill="#797979"/>
<path d="M141.473 38.1726C140.443 38.1726 139.649 37.8805 139.091 37.2963C138.533 36.7044 138.254 35.8904 138.254 34.8545V28.1599H137.046C136.891 28.1599 136.755 28.1092 136.639 28.008C136.531 27.9067 136.476 27.7548 136.476 27.5523V26.4073L138.394 26.0919L138.998 22.8205C139.029 22.6647 139.099 22.544 139.207 22.4583C139.323 22.3726 139.467 22.3298 139.637 22.3298H141.125V26.1036H144.262V28.1599H141.125V34.6559C141.125 35.0297 141.218 35.3218 141.404 35.5321C141.59 35.7424 141.837 35.8476 142.147 35.8476C142.326 35.8476 142.473 35.8281 142.589 35.7892C142.713 35.7424 142.817 35.6957 142.903 35.649C142.996 35.6022 143.077 35.5594 143.147 35.5204C143.216 35.4737 143.286 35.4503 143.356 35.4503C143.441 35.4503 143.511 35.4737 143.565 35.5204C143.619 35.5594 143.677 35.6217 143.739 35.7074L144.599 37.1094C144.181 37.4599 143.701 37.7247 143.158 37.9039C142.616 38.083 142.054 38.1726 141.473 38.1726Z" fill="#797979"/>
<path d="M149.171 25.9984V33.616C149.171 34.3482 149.338 34.9168 149.671 35.3218C150.012 35.7191 150.519 35.9177 151.193 35.9177C151.689 35.9177 152.154 35.8086 152.588 35.5905C153.022 35.3647 153.432 35.057 153.82 34.6676V25.9984H156.69V37.9857H154.935C154.564 37.9857 154.319 37.8104 154.203 37.4599L154.006 36.5019C153.758 36.7511 153.502 36.9809 153.239 37.1912C152.975 37.3937 152.693 37.569 152.39 37.7169C152.096 37.8571 151.774 37.9662 151.426 38.0441C151.085 38.1298 150.717 38.1726 150.322 38.1726C149.671 38.1726 149.094 38.0636 148.59 37.8455C148.095 37.6196 147.676 37.3041 147.335 36.8991C146.994 36.4941 146.735 36.015 146.557 35.462C146.386 34.9012 146.301 34.2859 146.301 33.616V25.9984H149.171Z" fill="#797979"/>
<path d="M163.671 38.1726C162.641 38.1726 161.847 37.8805 161.289 37.2963C160.731 36.7044 160.452 35.8904 160.452 34.8545V28.1599H159.243C159.089 28.1599 158.953 28.1092 158.837 28.008C158.728 27.9067 158.674 27.7548 158.674 27.5523V26.4073L160.591 26.0919L161.196 22.8205C161.227 22.6647 161.296 22.544 161.405 22.4583C161.521 22.3726 161.664 22.3298 161.835 22.3298H163.322V26.1036H166.46V28.1599H163.322V34.6559C163.322 35.0297 163.415 35.3218 163.601 35.5321C163.787 35.7424 164.035 35.8476 164.345 35.8476C164.523 35.8476 164.67 35.8281 164.787 35.7892C164.911 35.7424 165.015 35.6957 165.1 35.649C165.193 35.6022 165.275 35.5594 165.344 35.5204C165.414 35.4737 165.484 35.4503 165.554 35.4503C165.639 35.4503 165.709 35.4737 165.763 35.5204C165.817 35.5594 165.875 35.6217 165.937 35.7074L166.797 37.1094C166.379 37.4599 165.898 37.7247 165.356 37.9039C164.814 38.083 164.252 38.1726 163.671 38.1726Z" fill="#797979"/>
<path d="M173.67 25.8115C174.422 25.8115 175.111 25.9322 175.739 26.1737C176.374 26.4151 176.92 26.7695 177.377 27.2369C177.834 27.6964 178.191 28.265 178.446 28.9426C178.702 29.6125 178.83 30.3797 178.83 31.2443C178.83 31.4624 178.818 31.6454 178.795 31.7934C178.779 31.9336 178.744 32.0466 178.69 32.1322C178.644 32.2101 178.578 32.2685 178.493 32.3075C178.407 32.3386 178.299 32.3542 178.167 32.3542H170.8C170.885 33.5849 171.214 34.4884 171.787 35.0648C172.361 35.6412 173.12 35.9294 174.065 35.9294C174.53 35.9294 174.929 35.8748 175.262 35.7658C175.603 35.6568 175.897 35.536 176.145 35.4036C176.401 35.2712 176.622 35.1505 176.808 35.0414C177.001 34.9324 177.187 34.8779 177.365 34.8779C177.482 34.8779 177.582 34.9012 177.668 34.948C177.753 34.9947 177.826 35.0609 177.888 35.1466L178.725 36.1981C178.407 36.572 178.051 36.8874 177.656 37.1445C177.261 37.3937 176.846 37.5962 176.413 37.752C175.986 37.9 175.549 38.0051 175.099 38.0674C174.658 38.1298 174.228 38.1609 173.809 38.1609C172.981 38.1609 172.21 38.0246 171.497 37.752C170.784 37.4716 170.164 37.0627 169.638 36.5252C169.111 35.98 168.696 35.3101 168.394 34.5157C168.092 33.7134 167.941 32.7865 167.941 31.735C167.941 30.9172 168.073 30.1499 168.336 29.4334C168.599 28.709 168.975 28.082 169.463 27.5523C169.959 27.0149 170.56 26.5904 171.265 26.2788C171.977 25.9673 172.779 25.8115 173.67 25.8115ZM173.728 27.8794C172.891 27.8794 172.237 28.117 171.764 28.5921C171.292 29.0673 170.989 29.741 170.858 30.6134H176.25C176.25 30.2395 176.2 29.889 176.099 29.5619C175.998 29.2269 175.843 28.9349 175.634 28.6856C175.425 28.4364 175.161 28.2416 174.844 28.1014C174.526 27.9534 174.154 27.8794 173.728 27.8794Z" fill="#797979"/>
<path d="M186.163 37.9857V28.1715L185.129 28.008C184.904 27.969 184.722 27.8911 184.583 27.7743C184.451 27.6575 184.385 27.4939 184.385 27.2836V26.1036H186.163V25.2156C186.163 24.5302 186.264 23.9149 186.466 23.3696C186.675 22.8244 186.969 22.3609 187.349 21.9793C187.736 21.5976 188.205 21.3055 188.755 21.103C189.305 20.9005 189.925 20.7993 190.614 20.7993C191.164 20.7993 191.676 20.8733 192.148 21.0212L192.09 22.47C192.075 22.6959 191.97 22.8361 191.776 22.8906C191.583 22.9451 191.358 22.9724 191.102 22.9724C190.761 22.9724 190.455 23.0113 190.184 23.0892C189.921 23.1593 189.696 23.2878 189.51 23.4748C189.324 23.6539 189.181 23.8954 189.08 24.1991C188.987 24.4951 188.941 24.8651 188.941 25.3091V26.1036H192.044V28.1599H189.034V37.9857H186.163Z" fill="#797979"/>
<path d="M198.89 25.8115C199.781 25.8115 200.587 25.9556 201.307 26.2438C202.036 26.532 202.655 26.9409 203.167 27.4705C203.678 28.0002 204.073 28.6467 204.352 29.41C204.631 30.1733 204.77 31.0262 204.77 31.9687C204.77 32.9189 204.631 33.7757 204.352 34.539C204.073 35.3024 203.678 35.9527 203.167 36.4902C202.655 37.0276 202.036 37.4404 201.307 37.7286C200.587 38.0168 199.781 38.1609 198.89 38.1609C197.999 38.1609 197.19 38.0168 196.461 37.7286C195.733 37.4404 195.11 37.0276 194.59 36.4902C194.079 35.9527 193.68 35.3024 193.394 34.539C193.115 33.7757 192.975 32.9189 192.975 31.9687C192.975 31.0262 193.115 30.1733 193.394 29.41C193.68 28.6467 194.079 28.0002 194.59 27.4705C195.11 26.9409 195.733 26.532 196.461 26.2438C197.19 25.9556 197.999 25.8115 198.89 25.8115ZM198.89 35.9411C199.882 35.9411 200.614 35.6061 201.087 34.9363C201.567 34.2664 201.807 33.285 201.807 31.992C201.807 30.6991 201.567 29.7138 201.087 29.0361C200.614 28.3585 199.882 28.0196 198.89 28.0196C197.883 28.0196 197.139 28.3624 196.659 29.0478C196.179 29.7254 195.939 30.7069 195.939 31.992C195.939 33.2772 196.179 34.2586 196.659 34.9363C197.139 35.6061 197.883 35.9411 198.89 35.9411Z" fill="#797979"/>
<path d="M207.01 37.9857V25.9984H208.695C208.989 25.9984 209.195 26.0529 209.311 26.162C209.427 26.271 209.505 26.458 209.543 26.7228L209.718 28.1715C210.144 27.4316 210.643 26.8474 211.217 26.419C211.79 25.9906 212.433 25.7764 213.146 25.7764C213.735 25.7764 214.223 25.9127 214.61 26.1853L214.238 28.3468C214.215 28.487 214.164 28.5882 214.087 28.6506C214.01 28.7051 213.905 28.7323 213.773 28.7323C213.657 28.7323 213.498 28.7051 213.297 28.6506C213.095 28.596 212.828 28.5688 212.495 28.5688C211.898 28.5688 211.387 28.7362 210.961 29.0712C210.535 29.3983 210.175 29.8812 209.88 30.5199V37.9857H207.01Z" fill="#797979"/>
<path d="M106.528 62.8131H104.111C103.84 62.8131 103.616 62.7469 103.437 62.6144C103.267 62.4742 103.143 62.3029 103.065 62.1004L101.81 58.6537H94.8495L93.5945 62.1004C93.5325 62.2795 93.4085 62.4431 93.2226 62.5911C93.0444 62.7391 92.8236 62.8131 92.5602 62.8131H90.1314L96.7321 45.9187H99.9278L106.528 62.8131ZM95.6513 56.4339H101.009L98.9633 50.8141C98.8703 50.5649 98.7657 50.2728 98.6495 49.9379C98.5411 49.5952 98.4326 49.2252 98.3242 48.8279C98.2157 49.2252 98.1072 49.5952 97.9988 49.9379C97.898 50.2806 97.7973 50.5805 97.6966 50.8375L95.6513 56.4339Z" fill="#797979"/>
<path d="M111.78 62.8131H108.643V45.9187H111.78V62.8131Z" fill="#797979"/>
<path d="M131.903 45.9187V48.5008H126.848V62.8131H123.722V48.5008H118.644V45.9187H131.903Z" fill="#797979"/>
<path d="M131.86 62.8131V50.8258H133.545C133.84 50.8258 134.045 50.8803 134.161 50.9894C134.277 51.0984 134.355 51.2854 134.394 51.5502L134.568 52.9989C134.994 52.259 135.494 51.6748 136.067 51.2464C136.64 50.818 137.283 50.6038 137.996 50.6038C138.585 50.6038 139.073 50.7401 139.46 51.0127L139.088 53.1742C139.065 53.3144 139.015 53.4156 138.937 53.478C138.86 53.5325 138.755 53.5597 138.623 53.5597C138.507 53.5597 138.348 53.5325 138.147 53.478C137.946 53.4234 137.678 53.3962 137.345 53.3962C136.749 53.3962 136.237 53.5636 135.811 53.8986C135.385 54.2257 135.025 54.7086 134.73 55.3473V62.8131H131.86Z" fill="#797979"/>
<path d="M150.35 62.8131H149.06C148.789 62.8131 148.576 62.7741 148.421 62.6962C148.266 62.6106 148.15 62.4431 148.073 62.1938L147.817 61.3409C147.515 61.6136 147.216 61.855 146.922 62.0653C146.635 62.2678 146.337 62.4392 146.027 62.5794C145.717 62.7196 145.388 62.8247 145.039 62.8948C144.691 62.965 144.303 63 143.877 63C143.374 63 142.909 62.9338 142.483 62.8014C142.057 62.6612 141.689 62.4548 141.379 62.1822C141.077 61.9095 140.84 61.5707 140.67 61.1657C140.5 60.7607 140.414 60.2894 140.414 59.752C140.414 59.3002 140.531 58.8563 140.763 58.4201C141.003 57.9761 141.398 57.5789 141.948 57.2284C142.498 56.8701 143.231 56.5741 144.145 56.3404C145.059 56.1067 146.194 55.9743 147.55 55.9432V55.2422C147.55 54.4399 147.379 53.8479 147.038 53.4663C146.705 53.0768 146.217 52.8821 145.574 52.8821C145.109 52.8821 144.722 52.9366 144.412 53.0457C144.102 53.1547 143.831 53.2793 143.598 53.4195C143.374 53.552 143.165 53.6727 142.971 53.7817C142.777 53.8908 142.564 53.9453 142.332 53.9453C142.138 53.9453 141.972 53.8947 141.832 53.7934C141.693 53.6922 141.58 53.5675 141.495 53.4195L140.972 52.4966C142.343 51.2347 143.997 50.6038 145.934 50.6038C146.632 50.6038 147.251 50.7207 147.794 50.9543C148.344 51.1802 148.809 51.4996 149.188 51.9124C149.568 52.3174 149.854 52.8042 150.048 53.3728C150.25 53.9414 150.35 54.5645 150.35 55.2422V62.8131ZM144.772 61.0138C145.067 61.0138 145.338 60.9865 145.586 60.932C145.834 60.8775 146.066 60.7957 146.283 60.6867C146.508 60.5776 146.721 60.4452 146.922 60.2894C147.131 60.1259 147.34 59.935 147.55 59.7169V57.6957C146.713 57.7346 146.012 57.8086 145.446 57.9177C144.888 58.0189 144.439 58.1514 144.098 58.3149C143.757 58.4785 143.513 58.6693 143.366 58.8874C143.227 59.1055 143.157 59.3431 143.157 59.6001C143.157 60.1064 143.304 60.4686 143.598 60.6867C143.901 60.9048 144.292 61.0138 144.772 61.0138Z" fill="#797979"/>
<path d="M153.173 62.8131V50.8258H154.927C155.299 50.8258 155.543 51.0011 155.659 51.3516L155.857 52.2979C156.097 52.0487 156.349 51.8228 156.612 51.6203C156.884 51.4178 157.166 51.2425 157.461 51.0945C157.763 50.9465 158.084 50.8336 158.425 50.7557C158.766 50.6778 159.138 50.6389 159.541 50.6389C160.192 50.6389 160.769 50.7518 161.272 50.9777C161.776 51.1958 162.194 51.5073 162.527 51.9124C162.868 52.3096 163.124 52.7886 163.294 53.3494C163.473 53.9025 163.562 54.5139 163.562 55.1837V62.8131H160.691V55.1837C160.691 54.4516 160.521 53.8869 160.18 53.4896C159.847 53.0846 159.343 52.8821 158.669 52.8821C158.173 52.8821 157.709 52.995 157.275 53.2209C156.841 53.4468 156.43 53.7545 156.043 54.1439V62.8131H153.173Z" fill="#797979"/>
<path d="M173.459 53.1625C173.382 53.2871 173.301 53.3767 173.215 53.4312C173.13 53.478 173.022 53.5013 172.89 53.5013C172.751 53.5013 172.599 53.4624 172.437 53.3845C172.282 53.3066 172.1 53.2209 171.891 53.1275C171.681 53.0262 171.441 52.9366 171.17 52.8587C170.907 52.7808 170.593 52.7419 170.229 52.7419C169.663 52.7419 169.218 52.8626 168.892 53.1041C168.567 53.3455 168.404 53.661 168.404 54.0505C168.404 54.3075 168.486 54.5256 168.648 54.7047C168.819 54.8761 169.04 55.028 169.311 55.1604C169.59 55.2928 169.903 55.4135 170.252 55.5226C170.601 55.6238 170.957 55.7368 171.321 55.8614C171.685 55.986 172.042 56.1301 172.39 56.2937C172.739 56.4495 173.049 56.652 173.32 56.9012C173.599 57.1427 173.82 57.4348 173.982 57.7775C174.153 58.1202 174.238 58.533 174.238 59.0159C174.238 59.5923 174.133 60.1259 173.924 60.6166C173.715 61.0995 173.409 61.5201 173.006 61.8784C172.603 62.2289 172.104 62.5054 171.507 62.7079C170.918 62.9026 170.24 63 169.473 63C169.063 63 168.66 62.9611 168.265 62.8832C167.878 62.8131 167.502 62.7118 167.138 62.5794C166.781 62.447 166.448 62.2912 166.138 62.1121C165.836 61.9329 165.569 61.7382 165.336 61.5279L165.999 60.4296C166.084 60.2972 166.185 60.196 166.301 60.1259C166.417 60.0558 166.564 60.0207 166.743 60.0207C166.921 60.0207 167.087 60.0713 167.242 60.1726C167.405 60.2739 167.591 60.3829 167.8 60.4997C168.009 60.6166 168.253 60.7256 168.532 60.8269C168.819 60.9281 169.179 60.9788 169.613 60.9788C169.954 60.9788 170.244 60.9398 170.484 60.8619C170.732 60.7762 170.934 60.6672 171.089 60.5348C171.251 60.4024 171.368 60.2505 171.437 60.0791C171.515 59.9 171.554 59.7169 171.554 59.53C171.554 59.2496 171.468 59.0198 171.298 58.8407C171.135 58.6615 170.914 58.5058 170.636 58.3733C170.364 58.2409 170.051 58.1241 169.694 58.0228C169.346 57.9138 168.985 57.797 168.614 57.6723C168.249 57.5477 167.889 57.4036 167.533 57.24C167.184 57.0687 166.87 56.8545 166.591 56.5975C166.32 56.3404 166.1 56.025 165.929 55.6511C165.766 55.2772 165.685 54.8255 165.685 54.2958C165.685 53.8051 165.782 53.3378 165.976 52.8938C166.169 52.4498 166.452 52.0643 166.824 51.7371C167.203 51.4022 167.672 51.1374 168.23 50.9426C168.796 50.7401 169.446 50.6389 170.182 50.6389C171.004 50.6389 171.751 50.7752 172.425 51.0478C173.099 51.3204 173.661 51.6787 174.11 52.1227L173.459 53.1625Z" fill="#797979"/>
<path d="M177.039 62.8131V52.9989L176.005 52.8354C175.78 52.7964 175.598 52.7185 175.459 52.6017C175.327 52.4849 175.261 52.3213 175.261 52.111V50.931H177.039V50.043C177.039 49.3576 177.14 48.7423 177.341 48.197C177.55 47.6518 177.845 47.1884 178.224 46.8067C178.612 46.425 179.081 46.1329 179.631 45.9304C180.181 45.7279 180.8 45.6267 181.49 45.6267C182.04 45.6267 182.551 45.7007 183.024 45.8486L182.966 47.2974C182.95 47.5233 182.846 47.6635 182.652 47.718C182.458 47.7725 182.234 47.7998 181.978 47.7998C181.637 47.7998 181.331 47.8387 181.06 47.9166C180.797 47.9867 180.572 48.1152 180.386 48.3022C180.2 48.4813 180.057 48.7228 179.956 49.0266C179.863 49.3225 179.817 49.6925 179.817 50.1365V50.931H182.919V52.9873H179.91V62.8131H177.039Z" fill="#797979"/>
<path d="M189.766 50.6389C190.657 50.6389 191.463 50.783 192.183 51.0712C192.911 51.3594 193.531 51.7683 194.042 52.2979C194.554 52.8276 194.949 53.4741 195.228 54.2374C195.507 55.0007 195.646 55.8536 195.646 56.7961C195.646 57.7463 195.507 58.6031 195.228 59.3664C194.949 60.1298 194.554 60.7801 194.042 61.3176C193.531 61.855 192.911 62.2678 192.183 62.556C191.463 62.8442 190.657 62.9883 189.766 62.9883C188.875 62.9883 188.065 62.8442 187.337 62.556C186.609 62.2678 185.985 61.855 185.466 61.3176C184.955 60.7801 184.556 60.1298 184.269 59.3664C183.99 58.6031 183.851 57.7463 183.851 56.7961C183.851 55.8536 183.99 55.0007 184.269 54.2374C184.556 53.4741 184.955 52.8276 185.466 52.2979C185.985 51.7683 186.609 51.3594 187.337 51.0712C188.065 50.783 188.875 50.6389 189.766 50.6389ZM189.766 60.7685C190.758 60.7685 191.49 60.4335 191.962 59.7637C192.443 59.0938 192.683 58.1124 192.683 56.8194C192.683 55.5265 192.443 54.5412 191.962 53.8635C191.49 53.1859 190.758 52.8471 189.766 52.8471C188.759 52.8471 188.015 53.1898 187.535 53.8752C187.054 54.5528 186.814 55.5343 186.814 56.8194C186.814 58.1046 187.054 59.086 187.535 59.7637C188.015 60.4335 188.759 60.7685 189.766 60.7685Z" fill="#797979"/>
<path d="M197.886 62.8131V50.8258H199.571C199.865 50.8258 200.07 50.8803 200.187 50.9894C200.303 51.0984 200.38 51.2854 200.419 51.5502L200.593 52.9989C201.019 52.259 201.519 51.6748 202.092 51.2464C202.666 50.818 203.309 50.6038 204.022 50.6038C204.61 50.6038 205.098 50.7401 205.486 51.0127L205.114 53.1742C205.091 53.3144 205.04 53.4156 204.963 53.478C204.885 53.5325 204.781 53.5597 204.649 53.5597C204.533 53.5597 204.374 53.5325 204.173 53.478C203.971 53.4234 203.704 53.3962 203.371 53.3962C202.774 53.3962 202.263 53.5636 201.837 53.8986C201.411 54.2257 201.05 54.7086 200.756 55.3473V62.8131H197.886Z" fill="#797979"/>
<path d="M207.373 62.8131V50.8258H209.128C209.5 50.8258 209.744 51.0011 209.86 51.3516L210.046 52.2395C210.255 52.0058 210.472 51.7916 210.697 51.5969C210.929 51.4022 211.173 51.2347 211.429 51.0945C211.692 50.9543 211.971 50.8453 212.265 50.7674C212.568 50.6817 212.897 50.6389 213.253 50.6389C214.005 50.6389 214.621 50.8453 215.101 51.2581C215.589 51.6631 215.953 52.2045 216.193 52.8821C216.379 52.4849 216.612 52.146 216.891 51.8656C217.169 51.5774 217.475 51.3438 217.809 51.1646C218.142 50.9855 218.494 50.8531 218.866 50.7674C219.246 50.6817 219.625 50.6389 220.005 50.6389C220.663 50.6389 221.248 50.7401 221.76 50.9426C222.271 51.1452 222.701 51.4411 223.05 51.8306C223.398 52.22 223.662 52.6952 223.84 53.256C224.026 53.8168 224.119 54.4594 224.119 55.1837V62.8131H221.248V55.1837C221.248 54.4204 221.082 53.8479 220.749 53.4663C220.416 53.0768 219.927 52.8821 219.284 52.8821C218.99 52.8821 218.715 52.9327 218.459 53.034C218.211 53.1352 217.991 53.2832 217.797 53.478C217.611 53.6649 217.464 53.9025 217.355 54.1907C217.247 54.4788 217.193 54.8099 217.193 55.1837V62.8131H214.311V55.1837C214.311 54.3815 214.148 53.7973 213.823 53.4312C213.505 53.0651 213.032 52.8821 212.405 52.8821C211.994 52.8821 211.607 52.9873 211.243 53.1976C210.886 53.4001 210.553 53.6805 210.243 54.0388V62.8131H207.373Z" fill="#797979"/>
<path d="M236.281 62.8131H234.991C234.72 62.8131 234.507 62.7741 234.352 62.6962C234.197 62.6106 234.081 62.4431 234.003 62.1938L233.748 61.3409C233.446 61.6136 233.147 61.855 232.853 62.0653C232.566 62.2678 232.268 62.4392 231.958 62.5794C231.648 62.7196 231.319 62.8247 230.97 62.8948C230.622 62.965 230.234 63 229.808 63C229.305 63 228.84 62.9338 228.414 62.8014C227.988 62.6612 227.62 62.4548 227.31 62.1822C227.008 61.9095 226.771 61.5707 226.601 61.1657C226.43 60.7607 226.345 60.2894 226.345 59.752C226.345 59.3002 226.461 58.8563 226.694 58.4201C226.934 57.9761 227.329 57.5789 227.879 57.2284C228.429 56.8701 229.161 56.5741 230.076 56.3404C230.99 56.1067 232.125 55.9743 233.48 55.9432V55.2422C233.48 54.4399 233.31 53.8479 232.969 53.4663C232.636 53.0768 232.148 52.8821 231.505 52.8821C231.04 52.8821 230.653 52.9366 230.343 53.0457C230.033 53.1547 229.762 53.2793 229.529 53.4195C229.305 53.552 229.096 53.6727 228.902 53.7817C228.708 53.8908 228.495 53.9453 228.263 53.9453C228.069 53.9453 227.902 53.8947 227.763 53.7934C227.624 53.6922 227.511 53.5675 227.426 53.4195L226.903 52.4966C228.274 51.2347 229.928 50.6038 231.865 50.6038C232.562 50.6038 233.182 50.7207 233.724 50.9543C234.275 51.1802 234.739 51.4996 235.119 51.9124C235.499 52.3174 235.785 52.8042 235.979 53.3728C236.18 53.9414 236.281 54.5645 236.281 55.2422V62.8131ZM230.703 61.0138C230.997 61.0138 231.269 60.9865 231.517 60.932C231.764 60.8775 231.997 60.7957 232.214 60.6867C232.438 60.5776 232.651 60.4452 232.853 60.2894C233.062 60.1259 233.271 59.935 233.48 59.7169V57.6957C232.644 57.7346 231.943 57.8086 231.377 57.9177C230.819 58.0189 230.37 58.1514 230.029 58.3149C229.688 58.4785 229.444 58.6693 229.297 58.8874C229.157 59.1055 229.088 59.3431 229.088 59.6001C229.088 60.1064 229.235 60.4686 229.529 60.6867C229.831 60.9048 230.223 61.0138 230.703 61.0138Z" fill="#797979"/>
<path d="M243.02 63C241.989 63 241.195 62.7079 240.637 62.1237C240.08 61.5318 239.801 60.7178 239.801 59.6819V52.9873H238.592C238.437 52.9873 238.302 52.9366 238.185 52.8354C238.077 52.7341 238.023 52.5822 238.023 52.3797V51.2347L239.94 50.9193L240.544 47.6479C240.575 47.4921 240.645 47.3714 240.754 47.2857C240.87 47.2 241.013 47.1572 241.184 47.1572H242.671V50.931H245.809V52.9873H242.671V59.4833C242.671 59.8571 242.764 60.1492 242.95 60.3595C243.136 60.5698 243.384 60.675 243.694 60.675C243.872 60.675 244.019 60.6555 244.135 60.6166C244.259 60.5698 244.364 60.5231 244.449 60.4764C244.542 60.4296 244.623 60.3868 244.693 60.3479C244.763 60.3011 244.833 60.2777 244.902 60.2777C244.988 60.2777 245.057 60.3011 245.111 60.3479C245.166 60.3868 245.224 60.4491 245.286 60.5348L246.146 61.9368C245.727 62.2873 245.247 62.5521 244.705 62.7313C244.162 62.9104 243.601 63 243.02 63Z" fill="#797979"/>
<path d="M251.148 50.8258V62.8131H248.277V50.8258H251.148ZM251.578 47.3324C251.578 47.5817 251.527 47.8154 251.427 48.0335C251.326 48.2515 251.19 48.4424 251.02 48.6059C250.857 48.7695 250.664 48.9019 250.439 49.0032C250.214 49.0967 249.974 49.1434 249.718 49.1434C249.471 49.1434 249.234 49.0967 249.01 49.0032C248.793 48.9019 248.603 48.7695 248.44 48.6059C248.277 48.4424 248.146 48.2515 248.045 48.0335C247.952 47.8154 247.906 47.5817 247.906 47.3324C247.906 47.0754 247.952 46.834 248.045 46.6081C248.146 46.3822 248.277 46.1875 248.44 46.0239C248.603 45.8603 248.793 45.7318 249.01 45.6383C249.234 45.5371 249.471 45.4865 249.718 45.4865C249.974 45.4865 250.214 45.5371 250.439 45.6383C250.664 45.7318 250.857 45.8603 251.02 46.0239C251.19 46.1875 251.326 46.3822 251.427 46.6081C251.527 46.834 251.578 47.0754 251.578 47.3324Z" fill="#797979"/>
<path d="M259.491 50.6389C260.382 50.6389 261.188 50.783 261.908 51.0712C262.637 51.3594 263.256 51.7683 263.768 52.2979C264.279 52.8276 264.674 53.4741 264.953 54.2374C265.232 55.0007 265.371 55.8536 265.371 56.7961C265.371 57.7463 265.232 58.6031 264.953 59.3664C264.674 60.1298 264.279 60.7801 263.768 61.3176C263.256 61.855 262.637 62.2678 261.908 62.556C261.188 62.8442 260.382 62.9883 259.491 62.9883C258.6 62.9883 257.791 62.8442 257.062 62.556C256.334 62.2678 255.711 61.855 255.191 61.3176C254.68 60.7801 254.281 60.1298 253.995 59.3664C253.716 58.6031 253.576 57.7463 253.576 56.7961C253.576 55.8536 253.716 55.0007 253.995 54.2374C254.281 53.4741 254.68 52.8276 255.191 52.2979C255.711 51.7683 256.334 51.3594 257.062 51.0712C257.791 50.783 258.6 50.6389 259.491 50.6389ZM259.491 60.7685C260.483 60.7685 261.215 60.4335 261.688 59.7637C262.168 59.0938 262.408 58.1124 262.408 56.8194C262.408 55.5265 262.168 54.5412 261.688 53.8635C261.215 53.1859 260.483 52.8471 259.491 52.8471C258.484 52.8471 257.74 53.1898 257.26 53.8752C256.78 54.5528 256.54 55.5343 256.54 56.8194C256.54 58.1046 256.78 59.086 257.26 59.7637C257.74 60.4335 258.484 60.7685 259.491 60.7685Z" fill="#797979"/>
<path d="M267.611 62.8131V50.8258H269.366C269.738 50.8258 269.982 51.0011 270.098 51.3516L270.295 52.2979C270.536 52.0487 270.787 51.8228 271.051 51.6203C271.322 51.4178 271.605 51.2425 271.899 51.0945C272.201 50.9465 272.523 50.8336 272.864 50.7557C273.204 50.6778 273.576 50.6389 273.979 50.6389C274.63 50.6389 275.207 50.7518 275.711 50.9777C276.214 51.1958 276.633 51.5073 276.966 51.9124C277.307 52.3096 277.562 52.7886 277.733 53.3494C277.911 53.9025 278 54.5139 278 55.1837V62.8131H275.13V55.1837C275.13 54.4516 274.959 53.8869 274.618 53.4896C274.285 53.0846 273.782 52.8821 273.108 52.8821C272.612 52.8821 272.147 52.995 271.713 53.2209C271.279 53.4468 270.869 53.7545 270.481 54.1439V62.8131H267.611Z" fill="#797979"/>
</svg>
