<svg width="278" height="81" viewBox="0 0 278 81" fill="none" xmlns="http://www.w3.org/2000/svg">
<path d="M110.691 55.2952H106.966V25.3215H111.419L124.265 44.4619C125.421 46.1746 126.663 48.23 127.733 50.1139C127.605 47.502 127.519 43.0915 127.519 40.0086V25.3215H131.244V55.2952H127.219L113.902 35.6838C112.703 33.8854 111.504 31.9586 110.52 30.203C110.605 32.6009 110.691 37.6535 110.691 40.9078V55.2952ZM145.948 55.8091C139.354 55.8091 135.115 51.4843 135.115 44.2478C135.115 37.1397 139.354 32.7293 145.948 32.7293C152.542 32.7293 156.782 37.1397 156.782 44.2478C156.782 51.4843 152.542 55.8091 145.948 55.8091ZM145.948 52.8544C150.059 52.8544 152.928 49.9427 152.928 44.2478C152.928 38.5099 150.059 35.641 145.948 35.641C141.838 35.641 138.969 38.5099 138.969 44.2478C138.969 49.9427 141.838 52.8544 145.948 52.8544ZM168.597 55.8091C162.774 55.8091 158.92 51.0988 158.92 44.4189C158.92 37.3538 163.202 32.7293 168.982 32.7293C171.852 32.7293 174.078 33.8854 175.577 35.9407V25.3215H179.259V55.2952H175.748V52.1264C174.206 54.4816 171.723 55.8091 168.597 55.8091ZM169.411 52.8544C173.436 52.8544 175.876 49.7286 175.876 44.3334C175.876 38.8524 173.307 35.641 169.411 35.641C165.6 35.641 162.774 38.6812 162.774 44.2478C162.774 49.5573 165.3 52.8544 169.411 52.8544ZM193.723 55.8091C187.128 55.8091 183.017 51.3129 183.017 44.3762C183.017 36.7543 187.728 32.7293 193.637 32.7293C199.503 32.7293 203.956 36.5402 203.913 45.1042H186.871C187.128 50.6706 190.34 52.8972 193.808 52.8972C196.806 52.8972 199.032 51.3558 199.974 48.4441H203.7C202.714 52.4262 199.546 55.8091 193.723 55.8091ZM187 42.3209H199.931C199.503 37.4823 196.848 35.641 193.594 35.641C190.297 35.641 187.557 37.3966 187 42.3209ZM209.462 55.2952H205.395L217.299 25.3215H221.194L232.971 55.2952H228.774L225.476 46.3887H212.76L209.462 55.2952ZM216.827 35.2985L213.959 43.1345H224.277L221.409 35.2985C220.639 33.1575 219.825 30.9309 219.14 28.7899C218.413 30.9309 217.598 33.1575 216.827 35.2985ZM239.662 25.3215V55.2952H235.637V25.3215H239.662Z" fill="#797979"/>
<mask id="mask0_137_218" style="mask-type:luminance" maskUnits="userSpaceOnUse" x="37" y="20" width="48" height="42">
<path d="M84.8957 20.5334H37V61.9669H84.8957V20.5334Z" fill="white"/>
</mask>
<g mask="url(#mask0_137_218)">
<path d="M53.7223 22.9284L39.6614 33.4243C39.1767 33.7954 38.3491 34.5272 37.7381 35.7144C36.9931 37.1678 36.9957 38.4958 37.0008 39.0792C37.0111 39.834 37.1297 40.4558 37.2431 40.8932C37.287 40.8932 37.3463 40.8932 37.3901 40.8932C37.47 40.8932 37.5474 40.8932 37.6273 40.8932C37.8181 40.4123 38.0707 40.0208 38.3002 39.6625C40.0326 36.9861 42.487 36.6765 46.9857 36.8454C50.6028 34.1459 54.2224 31.4439 57.8394 28.7444C58.6103 28.1687 59.5023 27.831 60.4149 27.7286V20.5334C58.0509 20.6435 55.7125 21.4418 53.7223 22.9284Z" fill="#797979"/>
<path d="M61.4778 20.5334V27.7286C62.3905 27.831 63.2826 28.1687 64.0533 28.7444C67.6703 31.4439 71.29 34.1459 74.907 36.8454C79.4058 36.6765 81.8627 36.9887 83.5926 39.6625C83.8222 40.0181 84.0748 40.4123 84.2655 40.8932C84.3455 40.8932 84.4228 40.8932 84.5026 40.8932C84.5465 40.8932 84.6059 40.8932 84.6497 40.8932C84.7606 40.4583 84.8817 39.834 84.892 39.0792C84.8996 38.4958 84.9023 37.1678 84.1546 35.7144C83.5437 34.5246 82.7186 33.7928 82.2313 33.4243L68.1706 22.9284C66.1802 21.4418 63.8419 20.6435 61.4778 20.5334Z" fill="#797979"/>
<path d="M60.4157 61.9654V54.7703C59.503 54.6681 58.6109 54.3303 57.8401 53.7545C54.223 51.0552 50.6034 48.3531 46.9863 45.6536C42.4876 45.8225 40.0307 45.5103 38.3008 42.8365C38.0713 42.4808 37.8187 42.0868 37.6279 41.6057C37.548 41.6057 37.4706 41.6057 37.3907 41.6057C37.3469 41.6057 37.2876 41.6057 37.2438 41.6057C37.1329 42.0407 37.0117 42.6649 37.0014 43.4199C36.9937 44.0032 36.9911 45.3313 37.7388 46.7845C38.3498 47.9744 39.1747 48.7062 39.662 49.0746L53.7229 59.5705C55.7132 61.0572 58.0516 61.8555 60.4157 61.9654Z" fill="#797979"/>
<path d="M68.1706 59.5705L82.2313 49.0746C82.7161 48.7037 83.5437 47.9718 84.1546 46.7845C84.9023 45.3313 84.8996 44.0032 84.892 43.4199C84.8817 42.6649 84.7631 42.0432 84.6497 41.6057C84.6059 41.6057 84.5465 41.6057 84.5026 41.6057C84.4228 41.6057 84.3455 41.6057 84.2655 41.6057C84.0748 42.0868 83.8222 42.4783 83.5926 42.8365C81.8602 45.5129 79.4058 45.8225 74.907 45.6536C71.29 48.3531 67.6703 51.0552 64.0533 53.7545C63.2826 54.3303 62.3905 54.6681 61.4778 54.7703V61.9654C63.8419 61.8555 66.1802 61.0572 68.1706 59.5705Z" fill="#797979"/>
</g>
</svg>
