<svg width="278" height="81" viewBox="0 0 278 81" fill="none" xmlns="http://www.w3.org/2000/svg">
<path d="M72.135 61.5759L68.1092 50.2416H51.5723L47.6084 61.5759C47.4845 61.9888 47.2368 62.1953 46.8651 62.1953H41.4767C41.0225 62.1953 40.7954 61.9888 40.7954 61.5759C40.7954 61.4521 40.8161 61.3282 40.8573 61.2043L56.0936 19.4594C56.2175 19.0465 56.4239 18.8401 56.713 18.8401H63.0304C63.3195 18.8401 63.5259 19.0465 63.6498 19.4594L78.8861 61.2043C78.9273 61.3282 78.948 61.4521 78.948 61.5759C78.948 61.9888 78.7209 62.1953 78.2667 62.1953H72.8783C72.5066 62.1953 72.2589 61.9888 72.135 61.5759ZM59.8717 26.8918L53.802 44.048H65.9414L59.8717 26.8918Z" fill="#797979"/>
<path d="M94.4494 36.306C91.6004 36.306 89.3294 37.2144 87.6365 39.0312C85.9848 40.8067 85.159 43.3461 85.159 46.6494C85.159 49.9526 85.9848 52.5126 87.6365 54.3294C89.3294 56.1049 91.6004 56.9927 94.4494 56.9927C96.3075 56.9927 97.9385 56.5591 99.3424 55.692C100.788 54.7836 101.799 53.4417 102.377 51.6662C102.501 51.2946 102.79 51.1088 103.244 51.1088H108.261C108.55 51.1088 108.695 51.2326 108.695 51.4804C108.695 51.7281 108.674 51.9346 108.633 52.0997C108.013 55.2378 106.444 57.8185 103.926 59.8417C101.448 61.8237 98.2894 62.8147 94.4494 62.8147C89.7836 62.8147 85.9848 61.3075 83.0532 58.2933C80.1628 55.2791 78.7177 51.3978 78.7177 46.6494C78.7177 41.9009 80.1628 38.0196 83.0532 35.0054C85.9848 31.9912 89.7836 30.4841 94.4494 30.4841C98.2894 30.4841 101.448 31.4957 103.926 33.5189C106.444 35.5009 108.013 38.0609 108.633 41.199C108.674 41.3641 108.695 41.5706 108.695 41.8183C108.695 42.0661 108.55 42.19 108.261 42.19H103.244C102.79 42.19 102.501 42.0042 102.377 41.6325C101.799 39.857 100.788 38.5357 99.3424 37.6686C97.9385 36.7602 96.3075 36.306 94.4494 36.306Z" fill="#797979"/>
<path d="M126.871 36.306C124.022 36.306 121.751 37.2144 120.058 39.0312C118.407 40.8067 117.581 43.3461 117.581 46.6494C117.581 49.9526 118.407 52.5126 120.058 54.3294C121.751 56.1049 124.022 56.9927 126.871 56.9927C128.73 56.9927 130.361 56.5591 131.764 55.692C133.21 54.7836 134.221 53.4417 134.799 51.6662C134.923 51.2946 135.212 51.1088 135.666 51.1088H140.683C140.972 51.1088 141.117 51.2326 141.117 51.4804C141.117 51.7281 141.096 51.9346 141.055 52.0997C140.435 55.2378 138.866 57.8185 136.348 59.8417C133.87 61.8237 130.711 62.8147 126.871 62.8147C122.206 62.8147 118.407 61.3075 115.475 58.2933C112.585 55.2791 111.14 51.3978 111.14 46.6494C111.14 41.9009 112.585 38.0196 115.475 35.0054C118.407 31.9912 122.206 30.4841 126.871 30.4841C130.711 30.4841 133.87 31.4957 136.348 33.5189C138.866 35.5009 140.435 38.0609 141.055 41.199C141.096 41.3641 141.117 41.5706 141.117 41.8183C141.117 42.0661 140.972 42.19 140.683 42.19H135.666C135.212 42.19 134.923 42.0042 134.799 41.6325C134.221 39.857 133.21 38.5357 131.764 37.6686C130.361 36.7602 128.73 36.306 126.871 36.306Z" fill="#797979"/>
<path d="M148.145 58.2933C145.09 55.2791 143.562 51.3978 143.562 46.6494C143.562 41.9009 145.09 38.0196 148.145 35.0054C151.201 31.9912 155.061 30.4841 159.727 30.4841C164.393 30.4841 168.254 31.9912 171.309 35.0054C174.365 38.0196 175.892 41.9009 175.892 46.6494C175.892 51.3978 174.365 55.2791 171.309 58.2933C168.254 61.3075 164.393 62.8147 159.727 62.8147C155.061 62.8147 151.201 61.3075 148.145 58.2933ZM152.728 39.1551C150.911 41.0545 150.003 43.5526 150.003 46.6494C150.003 49.7462 150.911 52.2442 152.728 54.1436C154.545 56.043 156.878 56.9927 159.727 56.9927C162.576 56.9927 164.909 56.043 166.726 54.1436C168.543 52.2442 169.451 49.7462 169.451 46.6494C169.451 43.5526 168.543 41.0545 166.726 39.1551C164.909 37.2557 162.576 36.306 159.727 36.306C156.878 36.306 154.545 37.2557 152.728 39.1551Z" fill="#797979"/>
<path d="M200.278 32.5899V37.4828C200.278 37.937 200.113 38.1641 199.783 38.1641C199.7 38.1641 199.556 38.1228 199.349 38.0403C196.996 36.8841 194.828 36.306 192.846 36.306C190.74 36.306 189.047 37.0906 187.767 38.6596C186.487 40.2287 185.847 42.479 185.847 45.4106V61.5759C185.847 61.9888 185.641 62.1953 185.228 62.1953H180.397C179.984 62.1953 179.777 61.9888 179.777 61.5759V31.7228C179.777 31.3099 179.984 31.1034 180.397 31.1034H185.228C185.641 31.1034 185.847 31.3099 185.847 31.7228V34.1383C188.159 31.7021 190.885 30.4841 194.023 30.4841C195.922 30.4841 197.759 30.8144 199.535 31.475C200.03 31.6815 200.278 32.0531 200.278 32.5899Z" fill="#797979"/>
<path d="M230.874 19.4594V61.5759C230.874 61.9888 230.668 62.1953 230.255 62.1953H225.424C225.011 62.1953 224.804 61.9888 224.804 61.5759V59.2843C222.368 61.6379 219.189 62.8147 215.266 62.8147C211.055 62.8147 207.669 61.3488 205.109 58.4172C202.549 55.4856 201.269 51.5629 201.269 46.6494C201.269 41.7358 202.549 37.8132 205.109 34.8815C207.669 31.9499 211.055 30.4841 215.266 30.4841C218.693 30.4841 221.873 31.6815 224.804 34.0763V19.4594C224.804 19.0465 225.011 18.8401 225.424 18.8401H230.255C230.668 18.8401 230.874 19.0465 230.874 19.4594ZM222.822 54.1436C224.474 52.203 225.3 49.7049 225.3 46.6494C225.3 43.5938 224.474 41.1164 222.822 39.217C221.212 37.2764 219.106 36.306 216.505 36.306C213.821 36.306 211.674 37.2764 210.064 39.217C208.495 41.1164 207.71 43.5938 207.71 46.6494C207.71 49.7049 208.495 52.203 210.064 54.1436C211.674 56.043 213.821 56.9927 216.505 56.9927C219.106 56.9927 221.212 56.043 222.822 54.1436Z" fill="#797979"/>
<path d="M236.13 61.5759V31.7228C236.13 31.3099 236.337 31.1034 236.75 31.1034H241.581C241.994 31.1034 242.2 31.3099 242.2 31.7228V61.5759C242.2 61.9888 241.994 62.1953 241.581 62.1953H236.75C236.337 62.1953 236.13 61.9888 236.13 61.5759ZM235.449 25.653V19.4594C235.449 19.0465 235.656 18.8401 236.069 18.8401H242.262C242.675 18.8401 242.881 19.0465 242.881 19.4594V25.653C242.881 26.066 242.675 26.2724 242.262 26.2724H236.069C235.656 26.2724 235.449 26.066 235.449 25.653Z" fill="#797979"/>
<path d="M250.252 58.2933C247.197 55.2791 245.669 51.3978 245.669 46.6494C245.669 41.9009 247.197 38.0196 250.252 35.0054C253.308 31.9912 257.169 30.4841 261.834 30.4841C266.5 30.4841 270.361 31.9912 273.416 35.0054C276.472 38.0196 278 41.9009 278 46.6494C278 51.3978 276.472 55.2791 273.416 58.2933C270.361 61.3075 266.5 62.8147 261.834 62.8147C257.169 62.8147 253.308 61.3075 250.252 58.2933ZM254.836 39.1551C253.019 41.0545 252.11 43.5526 252.11 46.6494C252.11 49.7462 253.019 52.2442 254.836 54.1436C256.652 56.043 258.985 56.9927 261.834 56.9927C264.683 56.9927 267.016 56.043 268.833 54.1436C270.65 52.2442 271.558 49.7462 271.558 46.6494C271.558 43.5526 270.65 41.0545 268.833 39.1551C267.016 37.2557 264.683 36.306 261.834 36.306C258.985 36.306 256.652 37.2557 254.836 39.1551Z" fill="#797979"/>
<path d="M35.9276 31.2677C37.9385 29.236 39.9493 26.2448 42.8572 20.4812C43.0987 20.0025 42.7312 19.4392 42.1952 19.452C11.3409 20.1872 7.16273 49.7111 5.06055 62.4551H9.31808C10.8082 55.3573 14.5034 51.2707 20.2511 50.6254C28.4641 49.5881 34.4277 42.5479 36.7506 36.2598C36.8902 35.8819 36.678 35.4702 36.2939 35.3488L32.9313 34.2861L35.9276 31.2677Z" fill="#797979"/>
<path d="M6.95695 20.236C7.23118 19.7345 7.95133 19.7345 8.22556 20.236L8.64943 21.011C9.71096 22.9519 11.3068 24.5477 13.2477 25.6093L14.0227 26.0331C14.5241 26.3074 14.5241 27.0275 14.0227 27.3017L13.2477 27.7256C11.3068 28.7871 9.71096 30.383 8.64943 32.3239L8.22556 33.0989C7.95133 33.6003 7.23118 33.6003 6.95695 33.0989L6.53308 32.3239C5.47155 30.383 3.87572 28.7871 1.93479 27.7256L1.15978 27.3017C0.658368 27.0275 0.658368 26.3074 1.15978 26.0331L1.93479 25.6093C3.87572 24.5477 5.47155 22.9519 6.53308 21.011L6.95695 20.236Z" fill="#797979"/>
</svg>
