<svg width="278" height="81" viewBox="0 0 278 81" fill="none" xmlns="http://www.w3.org/2000/svg">
<path d="M72.8802 28.2668L64.5753 54.7163H58.9678L53.467 36.8892L47.912 54.7163H42.305L34 28.2668H40.0302L45.1612 46.5167L50.7162 28.2668H56.1641L61.6657 46.5167L66.8496 28.2668H72.8802Z" fill="#797979"/>
<path d="M101.179 38.4762V54.7163H95.466V39.0581C95.466 35.0377 93.1388 32.9221 89.5416 32.9221C85.7861 32.9221 82.8236 35.1435 82.8236 40.5394V54.7163H77.1104V17.688H82.8236V31.6534C84.5689 28.9021 87.4255 27.5791 91.0228 27.5791C96.9472 27.5791 101.179 31.6 101.179 38.4762Z" fill="#797979"/>
<path d="M128.263 41.4923C128.263 36.5725 124.666 33.0282 119.906 33.0282C115.144 33.0282 111.547 36.5725 111.547 41.4923C111.547 46.4112 115.144 49.956 119.906 49.956C124.666 49.956 128.263 46.4112 128.263 41.4923ZM133.976 28.2671V54.7166H128.263V50.9082C126.253 53.7119 123.132 55.4043 119.006 55.4043C111.812 55.4043 105.834 49.3216 105.834 41.4923C105.834 33.6101 111.812 27.5794 119.006 27.5794C123.132 27.5794 126.253 29.2722 128.263 32.0231V28.2671H133.976Z" fill="#797979"/>
<path d="M164.708 38.4762V54.7163H158.995V39.0582C158.995 35.0377 156.668 32.9221 153.071 32.9221C149.315 32.9221 146.353 35.1435 146.353 40.5394V54.7163H140.64V28.2669H146.353V31.6534C148.098 28.9021 150.955 27.5791 154.552 27.5791C160.476 27.5791 164.708 31.6 164.708 38.4762Z" fill="#797979"/>
<path d="M191.897 41.2268C191.897 36.4661 188.3 32.9222 183.486 32.9222C178.672 32.9222 175.076 36.4661 175.076 41.2268C175.076 45.9878 178.672 49.5322 183.486 49.5322C188.3 49.5322 191.897 45.9878 191.897 41.2268ZM197.505 28.2665V53.4993C197.505 62.0154 190.84 65.9834 183.91 65.9834C178.09 65.9834 173.594 63.8145 171.372 59.5824L176.292 56.7258C177.455 59.0005 179.413 60.7996 184.015 60.7996C188.934 60.7996 191.897 58.1012 191.897 53.4993V50.2723C189.887 53.129 186.766 54.8751 182.692 54.8751C175.234 54.8751 169.362 48.7911 169.362 41.2268C169.362 33.6624 175.234 27.5788 182.692 27.5788C186.766 27.5788 189.887 29.3245 191.897 32.1812V28.2665H197.505Z" fill="#797979"/>
<path d="M225.117 41.4923C225.117 36.5725 221.52 33.0282 216.76 33.0282C211.999 33.0282 208.401 36.5725 208.401 41.4923C208.401 46.4112 211.999 49.956 216.76 49.956C221.52 49.956 225.117 46.4112 225.117 41.4923ZM230.831 28.2671V54.7166H225.117V50.9082C223.107 53.7119 219.986 55.4043 215.86 55.4043C208.666 55.4043 202.688 49.3216 202.688 41.4923C202.688 33.6101 208.666 27.5794 215.86 27.5794C219.986 27.5794 223.107 29.2722 225.117 32.0231V28.2671H230.831Z" fill="#797979"/>
<path d="M237.493 28.2669H243.207V54.7163H237.493V28.2669ZM236.7 20.65C236.7 18.6394 238.341 16.9999 240.35 16.9999C242.36 16.9999 244 18.6394 244 20.65C244 22.6069 242.36 24.3002 240.35 24.3002C238.341 24.3002 236.7 22.6069 236.7 20.65Z" fill="#797979"/>
<path d="M110.419 21.918H133.975V17.5407H110.419V21.918Z" fill="#797979"/>
</svg>
