<svg width="278" height="81" viewBox="0 0 278 81" fill="none" xmlns="http://www.w3.org/2000/svg">
<path d="M238.941 33.2614L238.324 32.3803C238.246 32.384 238.186 32.3878 238.145 32.3878H237.435V33.2614H237.026V30.395H238.145C238.517 30.395 238.807 30.4842 239.023 30.6627C239.234 30.8412 239.342 31.0828 239.342 31.3951C239.342 31.6145 239.287 31.8041 239.179 31.9602C239.071 32.1164 238.915 32.2279 238.71 32.2985L239.391 33.2614H238.945H238.941ZM238.725 31.8747C238.863 31.7632 238.93 31.6033 238.93 31.3951C238.93 31.1869 238.863 31.027 238.725 30.9192C238.588 30.8077 238.391 30.7519 238.13 30.7519H237.435V32.042H238.13C238.391 32.042 238.588 31.9862 238.725 31.8747Z" fill="#797979"/>
<path d="M238.039 34.7004C236.488 34.7004 235.228 33.4401 235.228 31.8898C235.228 30.3394 236.488 29.0791 238.039 29.0791C239.589 29.0791 240.849 30.3394 240.849 31.8898C240.849 33.4401 239.589 34.7004 238.039 34.7004ZM238.039 29.4955C236.719 29.4955 235.641 30.5699 235.641 31.8935C235.641 33.217 236.715 34.2915 238.039 34.2915C239.362 34.2915 240.437 33.217 240.437 31.8935C240.437 30.5699 239.362 29.4955 238.039 29.4955Z" fill="#797979"/>
<path d="M102.896 29.0825V33.5885H96.7763V52.1775H91.1513V33.5885H85.0317V29.0825H102.9H102.896Z" fill="#797979"/>
<path d="M125.732 29.083V52.1818H120.107V42.6716H111.356V52.1818H105.73V29.083H111.356V38.1322H120.107V29.083H125.732Z" fill="#797979"/>
<path d="M141.554 52.1818L136.75 43.4635H135.401V52.1818H129.776V29.083H139.219C141.041 29.083 142.591 29.4027 143.874 30.0385C145.156 30.6742 146.115 31.5479 146.751 32.6558C147.387 33.7637 147.707 34.998 147.707 36.3588C147.707 37.8942 147.272 39.2661 146.405 40.4707C145.539 41.6789 144.26 42.534 142.572 43.0359L147.904 52.1818H141.554ZM135.401 39.478H138.888C139.918 39.478 140.691 39.2252 141.208 38.7196C141.721 38.2139 141.981 37.5038 141.981 36.5818C141.981 35.6598 141.725 35.0129 141.208 34.5073C140.691 34.0017 139.918 33.7489 138.888 33.7489H135.401V39.4743V39.478Z" fill="#797979"/>
<path d="M156.852 33.5888V38.2621H164.388V42.6045H156.852V47.6719H165.373V52.1778H151.227V29.0791H165.373V33.5851H156.852V33.5888Z" fill="#797979"/>
<path d="M174.652 33.5888V38.2621H182.188V42.6045H174.652V47.6719H183.173V52.1778H169.027V29.0791H183.173V33.5851H174.652V33.5888Z" fill="#797979"/>
<path d="M192.353 29.0828V42.9019C192.353 44.2849 192.691 45.3482 193.372 46.0918C194.052 46.8391 195.048 47.2109 196.364 47.2109C197.68 47.2109 198.688 46.8391 199.391 46.0918C200.093 45.3445 200.443 44.2812 200.443 42.9019V29.0828H206.068V42.8685C206.068 44.9318 205.629 46.6755 204.752 48.0994C203.874 49.527 202.696 50.6015 201.216 51.3228C199.736 52.044 198.086 52.4083 196.264 52.4083C194.442 52.4083 192.814 52.0514 191.379 51.3376C189.944 50.6238 188.806 49.5494 187.973 48.1143C187.141 46.6792 186.724 44.9281 186.724 42.8647V29.0791H192.349L192.353 29.0828Z" fill="#797979"/>
<path d="M236.443 38.3252H230.814V52.1778H236.443V38.3252Z" fill="#797979"/>
<path d="M229.567 29.0791L223.15 45.0731L216.67 29.0791H210.023V52.1778H215.648V38.2918L220.849 52.1778H225.388L234.449 29.0791H229.567Z" fill="#797979"/>
<path d="M71.4446 47.0582C71.4446 47.7906 71.2587 48.5305 70.8683 49.2071L64.6596 59.9665C64.113 60.9145 63.1018 61.4982 62.0088 61.4982H60.6443V57.8324H61.6593L62.3397 56.6502L67.6933 47.3742C67.8643 47.0768 67.7714 46.7013 67.4814 46.5229C67.3773 46.4597 67.262 46.4262 67.1468 46.4262C66.9311 46.4262 66.7155 46.5377 66.5965 46.7422L61.1909 56.1036C60.9938 56.442 60.6369 56.6502 60.2465 56.6502H44.6949C43.5982 56.6502 42.5907 56.0665 42.0441 55.1184L37.1478 46.6418C36.9507 46.2998 36.9507 45.8797 37.1478 45.5376L38.9472 42.4221L45.0444 52.9807H58.7594L63.4215 44.9093C64.6373 42.8013 67.3587 42.121 69.4221 43.4111C70.727 44.2253 71.4483 45.6231 71.4483 47.0619L71.4446 47.0582Z" fill="#797979"/>
<path d="M54.0041 23.662L47.0518 35.704L51.7065 43.7679C52.9222 45.8759 52.1526 48.5714 50.0037 49.7164C49.3605 50.0585 48.669 50.2221 47.9849 50.2221C46.4941 50.2221 45.0516 49.4488 44.256 48.0732L37.6234 36.5814C37.3371 36.0869 37.3371 35.4772 37.6234 34.9828L38.9618 32.6666L41.8728 34.9567L41.397 35.7821L47.431 46.2366C47.602 46.534 47.9775 46.6381 48.2786 46.4782C48.4943 46.3667 48.6132 46.1473 48.6132 45.9206C48.6132 45.8127 48.5872 45.7049 48.5277 45.6045L43.1295 36.2543C42.9324 35.9159 42.9324 35.4995 43.1295 35.1649L51.4202 20.7993C51.7065 20.3049 52.2344 20 52.8069 20H63.1722C63.57 20 63.9343 20.2119 64.1314 20.5539L65.9308 23.6695H54.0041V23.662Z" fill="#797979"/>
<path d="M78.4174 46.8871L73.101 56.0961C72.9039 56.4381 72.5396 56.65 72.1418 56.65H68.5466L74.6439 46.0877L67.6878 34.0346H58.7019C56.2927 34.0346 54.352 32.0567 54.4041 29.6439C54.4264 28.4728 54.9172 27.4206 55.6942 26.6622C56.4712 25.9 57.5345 25.4353 58.7056 25.4353H71.1417C72.2347 25.4353 73.246 26.019 73.7925 26.9633L74.5806 28.3315L71.2829 29.9524L70.7922 29.1011H58.7056C58.3599 29.1011 58.081 29.3799 58.0699 29.7219V29.7331C58.0699 30.0826 58.3524 30.3688 58.7056 30.3688H69.1787C69.569 30.3688 69.9297 30.577 70.123 30.9116L78.4249 45.2884C78.7111 45.7829 78.7111 46.3926 78.4249 46.8871H78.4174Z" fill="#797979"/>
<path d="M60.9936 57.8286H52.2456V61.4944H60.9936V57.8286Z" fill="url(#paint0_linear_139_2)"/>
<path d="M46.4785 26.9784L41.6379 35.3658L38.6897 33.1388L43.3035 25.1455L46.4785 26.9784Z" fill="url(#paint1_linear_139_2)"/>
<path d="M78.6708 35.414L75.4921 37.2469L71.0977 29.6328L74.3656 27.9524L78.6708 35.414Z" fill="url(#paint2_linear_139_2)"/>
<defs>
<linearGradient id="paint0_linear_139_2" x1="52.2456" y1="59.6615" x2="60.9936" y2="59.6615" gradientUnits="userSpaceOnUse">
<stop stop-color="#797979" stop-opacity="0"/>
<stop offset="0.55" stop-color="#797979" stop-opacity="0.68"/>
<stop offset="0.82" stop-color="#797979"/>
</linearGradient>
<linearGradient id="paint1_linear_139_2" x1="39.1396" y1="33.5886" x2="46.1142" y2="26.614" gradientUnits="userSpaceOnUse">
<stop offset="0.18" stop-color="#797979"/>
<stop offset="0.45" stop-color="#797979" stop-opacity="0.68"/>
<stop offset="1" stop-color="#797979" stop-opacity="0"/>
</linearGradient>
<linearGradient id="paint2_linear_139_2" x1="71.5289" y1="29.2016" x2="78.2061" y2="35.8788" gradientUnits="userSpaceOnUse">
<stop offset="0.18" stop-color="#797979"/>
<stop offset="0.45" stop-color="#797979" stop-opacity="0.68"/>
<stop offset="1" stop-color="#797979" stop-opacity="0"/>
</linearGradient>
</defs>
</svg>
