<?xml version="1.0" encoding="UTF-8"?>
<svg xmlns="http://www.w3.org/2000/svg" width="197" height="61" viewBox="0 0 197 61" fill="none">
  <path d="M8.03242 5.87112H0V0.046875H22.506V5.87112H14.4685V32.8681H8.03242V5.87112Z" fill="white"></path>
  <path d="M24.3809 0.046875H30.7915V12.1142C32.1799 9.985 34.6678 8.36937 38.3996 8.36937C43.5199 8.36937 47.8246 11.4161 47.8246 18.7214V32.8681H41.4139V19.7386C41.4139 16.2481 39.4526 13.9144 36.1027 13.9144C32.7529 13.9144 30.7915 16.2281 30.7915 19.7386V32.8681H24.3809V0.046875Z" fill="white"></path>
  <path d="M50.6391 21.149C50.6391 12.9287 56.5033 8.48685 62.5037 8.48685C68.5041 8.48685 75.2344 12.8376 73.9156 23.5902H56.367C57.2235 26.9229 60.0217 28.6551 63.5402 28.6551C65.7493 28.7306 67.9054 27.9428 69.5844 26.4468L72.3389 29.4857C70.3923 32.0181 67.0149 33.806 62.8638 33.806C56.4108 33.8263 50.6391 29.2679 50.6391 21.149ZM68.5479 18.9863C68.1877 15.5118 65.3895 13.7745 62.5475 13.7745C61.0753 13.7263 59.6346 14.2238 58.4821 15.1783C57.3296 16.1329 56.5404 17.4824 56.2551 18.9863H68.5479Z" fill="white"></path>
  <path d="M85.3361 0.046875H97.3893C106.575 0.046875 113.469 6.79363 113.469 16.4575C113.469 26.1214 106.575 32.8681 97.3893 32.8681H85.3361V0.046875ZM97.1516 26.9042C103.484 26.9042 106.762 22.6507 106.762 16.4326C106.762 10.2144 103.484 6.03069 97.1516 6.03069H91.7851V26.9242L97.1516 26.9042Z" fill="white"></path>
  <path d="M116.28 0.046875H121.907V5.50212H116.28V0.046875ZM116.28 8.82813H121.907V32.8681H116.28V8.82813Z" fill="white"></path>
  <path d="M124.721 21.1389C124.721 12.6924 130.867 8.48685 136.593 8.48685C141.007 8.48685 143.855 10.8755 144.474 12.2369H144.618V8.93726H150.978V33.3354H144.618V30.051H144.474C143.855 31.4123 141.007 33.8061 136.593 33.8061C130.847 33.8061 124.721 29.5803 124.721 21.1389ZM137.888 28.1734C141.448 28.1734 144.771 25.7341 144.771 21.1389C144.771 16.5437 141.432 14.0993 137.888 14.0993C134.344 14.0993 131.005 16.5841 131.005 21.1389C131.005 25.6936 134.303 28.1734 137.888 28.1734Z" fill="white"></path>
  <path d="M154.728 8.94454H160.782V15.1639C161.596 11.478 163.902 8.48752 168.148 8.48752C168.682 8.4796 169.214 8.54137 169.732 8.67132V14.5629C169.225 14.4738 168.711 14.429 168.197 14.4287C163.629 14.4287 160.782 17.6477 160.782 22.4364V32.8683H154.728V8.94454Z" fill="white"></path>
  <path d="M180.75 32.9777L170.67 8.48685H177.071L183.799 25.6536L190.476 8.48685H196.927L186.697 33.2137L182.912 42.2458H176.778L180.75 32.9777Z" fill="white"></path>
  <path d="M18.755 61.0001V52.5617H21.2366C21.7674 52.5505 22.2974 52.6058 22.8138 52.7264C23.1767 52.8041 23.5047 52.9934 23.7497 53.2667C23.9774 53.5616 24.0893 53.9268 24.0652 54.2957C24.0692 54.5617 24.0191 54.8258 23.9179 55.0727C23.8178 55.3094 23.6734 55.5258 23.4921 55.7107C23.3072 55.9007 23.0924 56.0605 22.8559 56.184C22.6022 56.3146 22.3341 56.4164 22.0568 56.4876C22.3293 56.4982 22.5994 56.5414 22.8612 56.6162C23.1285 56.6899 23.3823 56.8045 23.613 56.9558C23.8435 57.1055 24.0345 57.3065 24.1703 57.5424C24.3179 57.8163 24.3903 58.123 24.3806 58.4325C24.3904 58.8476 24.2912 59.2581 24.0923 59.6248C23.8935 59.9915 23.6017 60.302 23.245 60.5267C23.0058 60.6787 22.743 60.7917 22.4668 60.8611C22.1815 60.9362 21.8891 60.9828 21.5941 61.0001C21.3102 61.0001 20.9684 61.0001 20.5689 61.0001H18.755ZM19.8696 53.0248V56.2921H20.3954C20.6836 56.2931 20.9716 56.2759 21.2576 56.2406C21.5086 56.2049 21.753 56.1339 21.9831 56.0297C22.2774 55.8985 22.5273 55.6879 22.7034 55.4225C22.8747 55.1545 22.9624 54.8433 22.9558 54.5273C22.9715 54.2085 22.8831 53.8931 22.7034 53.6268C22.5217 53.3949 22.2666 53.2284 21.9779 53.1535C21.5957 53.054 21.2008 53.009 20.8054 53.0197L19.8696 53.0248ZM19.8696 56.7552V60.5421H21.0736C21.4583 60.5489 21.839 60.4642 22.1829 60.2951C22.4939 60.1421 22.7531 59.9045 22.9295 59.6108C23.1139 59.3133 23.2087 58.9708 23.2029 58.6229C23.2307 58.3442 23.1819 58.0633 23.0618 57.8092C22.9417 57.555 22.7544 57.3368 22.5194 57.1771C21.9236 56.8623 21.25 56.7162 20.5741 56.7552H19.8696Z" fill="white"></path>
  <path d="M31.9798 57.2104V61.0001H30.9625V57.4459L28.1314 52.5603H29.4126C29.6237 53.0007 29.8589 53.4616 30.1036 53.9379C30.3483 54.4142 30.6362 54.9622 30.9577 55.5357C31.2792 56.1093 31.4951 56.5088 31.6055 56.6931C31.758 56.4797 31.8944 56.2537 32.0133 56.0171C32.2005 55.674 32.426 55.2541 32.6803 54.7624C32.9346 54.2708 33.1602 53.856 33.3185 53.5129L33.7984 52.5603H34.6957C34.3982 52.97 34.1247 53.3848 33.8799 53.7945L32.6083 55.9813C32.3713 56.3742 32.1612 56.785 31.9798 57.2104Z" fill="white"></path>
  <path d="M44.2774 59.2631H44.3912C44.592 59.627 44.8652 59.9423 45.1927 60.1881C45.5028 60.4006 45.8693 60.5072 46.2407 60.4931C46.5268 60.4985 46.8084 60.4182 47.0516 60.2619C47.2919 60.106 47.4883 59.8871 47.6207 59.6272C47.7588 59.3629 47.8306 59.0669 47.8294 58.7662C47.8456 58.5642 47.8144 58.3611 47.7384 58.1743C47.6624 57.9875 47.5439 57.8226 47.3931 57.6937C46.9832 57.401 46.5384 57.1645 46.07 56.9902C45.5767 56.8115 45.1188 56.5415 44.7184 56.1932C44.5558 56.0126 44.4323 55.798 44.3562 55.5638C44.2801 55.3296 44.2532 55.0812 44.2774 54.8353C44.2606 54.5157 44.3172 54.1965 44.4425 53.904C44.5678 53.6115 44.7583 53.354 44.9982 53.1528C45.5204 52.7455 46.1617 52.537 46.8145 52.5624C47.1171 52.5616 47.4179 52.6097 47.7061 52.7051C47.9785 52.7873 48.2297 52.9319 48.4412 53.1282C48.3842 53.2659 48.2799 53.5906 48.1376 54.1121H48.0238C47.9137 53.8062 47.7149 53.5432 47.4547 53.3594C47.2004 53.1755 46.8969 53.0791 46.5869 53.0839C46.3347 53.0806 46.0856 53.1414 45.8613 53.261C45.6434 53.3713 45.4604 53.5437 45.3336 53.758C45.2067 53.9724 45.1414 54.2198 45.1452 54.4713C45.1296 54.6706 45.1607 54.8709 45.2358 55.0551C45.311 55.2393 45.4279 55.4019 45.5768 55.529C45.9912 55.8254 46.4406 56.0652 46.9141 56.2424C47.4107 56.4244 47.8741 56.6922 48.2847 57.0345C48.448 57.1965 48.5751 57.3936 48.657 57.6121C48.7389 57.8305 48.7737 58.065 48.7589 58.2989C48.7627 58.6861 48.6884 59.0699 48.5407 59.4255C48.3995 59.7525 48.1926 60.0443 47.9337 60.2815C47.6698 60.5193 47.3637 60.7014 47.0327 60.8178C46.6801 60.9426 46.3097 61.0042 45.9372 60.9998C45.5886 60.9918 45.2432 60.9288 44.9129 60.8129C44.5969 60.7266 44.3078 60.5572 44.0735 60.3209C44.1764 59.9765 44.2447 59.6221 44.2774 59.2631Z" fill="white"></path>
  <path d="M55.4825 53.1632V61.0001H54.3515V53.1632C53.4246 53.1644 52.4985 53.2122 51.5767 53.3062C51.5767 53.2449 51.5767 53.1785 51.5767 53.1018C51.5804 53.0474 51.5804 52.9928 51.5767 52.9384C51.5807 52.8959 51.5807 52.8531 51.5767 52.8106C51.5788 52.78 51.5788 52.7493 51.5767 52.7187C51.5767 52.6778 51.5767 52.6267 51.5767 52.5603H58.141C58.141 52.6523 58.141 52.7238 58.141 52.7851C58.1199 52.8845 58.1199 52.9871 58.141 53.0865C58.141 53.1529 58.141 53.2245 58.141 53.3062C57.7869 53.2653 57.3746 53.2296 56.9148 53.204C56.455 53.1785 55.9741 53.1632 55.4825 53.1632Z" fill="white"></path>
  <path d="M63.001 53.0955V56.1832H65.367L65.755 56.1523H66.17C66.17 56.2244 66.17 56.2861 66.17 56.3376C66.1653 56.3838 66.1653 56.4304 66.17 56.4766C66.1668 56.5194 66.1668 56.5624 66.17 56.6052C66.17 56.667 66.17 56.739 66.17 56.8214H63.001V60.4237C63.54 60.4237 64.316 60.4237 65.3562 60.3722C65.7569 60.3558 66.1563 60.318 66.5526 60.259C66.5526 60.2899 66.5526 60.3311 66.5526 60.3877C66.5526 60.4443 66.5526 60.4854 66.5526 60.5163C66.5526 60.5472 66.5526 60.5884 66.5526 60.6347C66.5477 60.6946 66.5477 60.7548 66.5526 60.8148C66.5526 60.8817 66.5526 60.9435 66.5796 61.0001H61.8908V52.5603H66.4933C66.4933 52.6529 66.4933 52.725 66.4933 52.7867C66.4886 52.8381 66.4886 52.8898 66.4933 52.9411C66.4888 52.9908 66.4888 53.0407 66.4933 53.0904C66.4933 53.1573 66.4933 53.2293 66.4933 53.3117C66.0969 53.2319 65.6954 53.1769 65.2915 53.147H63.9927L63.001 53.0955Z" fill="white"></path>
  <path d="M74.0013 58.1527L75.2426 54.8085L75.9491 52.76L76.0326 52.5603H76.8961C76.798 52.76 76.5821 53.2466 76.2582 54.0199C75.9344 54.7932 75.5517 55.7047 75.1249 56.7495C74.698 57.7942 74.3398 58.6853 74.0552 59.4278C73.7707 60.1704 73.5646 60.6877 73.4812 61.0001H72.9954C72.6324 60.2063 72.3184 59.4944 72.0436 58.8543C71.7688 58.2141 71.4008 57.3179 70.9298 56.1861C70.4588 55.0543 70.1104 54.1991 69.8847 53.6614C69.659 53.1236 69.4971 52.7549 69.3941 52.5603H70.5422C70.66 52.8573 70.8022 53.2568 70.9789 53.7587L71.7737 55.9147L73.2457 59.6532H73.3487C73.4272 59.4842 73.5401 59.2486 73.6824 58.9362C73.8246 58.6238 73.9228 58.3575 74.0013 58.1527Z" fill="white"></path>
  <path d="M81.7883 53.0955V56.1832H84.1489L84.5423 56.1523H84.9573C84.9573 56.2244 84.9573 56.2861 84.9303 56.3376C84.9256 56.3838 84.9256 56.4304 84.9303 56.4766C84.9271 56.5194 84.9271 56.5624 84.9303 56.6052C84.9303 56.667 84.9303 56.739 84.9573 56.8214H81.7883V60.4237C82.3273 60.4237 83.098 60.4237 84.1381 60.3722C84.5388 60.356 84.9383 60.3182 85.3345 60.259C85.3345 60.2899 85.3345 60.3311 85.3345 60.3877C85.3308 60.4305 85.3308 60.4735 85.3345 60.5163C85.3345 60.5523 85.3345 60.5884 85.3345 60.6347C85.3297 60.6946 85.3297 60.7548 85.3345 60.8148C85.3345 60.8817 85.3345 60.9435 85.3345 61.0001H80.6458V52.5603H85.2537C85.2537 52.6529 85.2537 52.725 85.2537 52.7867C85.2537 52.8485 85.2537 52.9 85.2537 52.9411C85.2537 52.9823 85.2537 53.0286 85.2537 53.0904C85.2537 53.1521 85.2537 53.2293 85.2537 53.3117C84.8689 53.2444 84.4801 53.1997 84.0896 53.1779H82.7908L81.7883 53.0955Z" fill="white"></path>
  <path d="M96.5886 52.5603V60.9898H96.2459C96.0624 60.7282 95.8665 60.4772 95.6589 60.2379L90.771 54.3506H90.6583V61.0001H90.0244V52.5603H90.4658L95.8374 58.908H95.9501V52.5603H96.5886Z" fill="white"></path>
  <path d="M106.904 61.0001V52.5617H109.386C109.917 52.5507 110.447 52.6061 110.963 52.7263C111.326 52.804 111.654 52.9934 111.899 53.2666C112.127 53.5616 112.239 53.9267 112.214 54.2957C112.218 54.5616 112.168 54.8257 112.067 55.0726C111.967 55.3094 111.823 55.5258 111.641 55.7106C111.456 55.9006 111.242 56.0604 111.005 56.184C110.751 56.3146 110.483 56.4164 110.206 56.4876C110.478 56.4985 110.749 56.5417 111.01 56.6162C111.278 56.6898 111.532 56.8044 111.762 56.9558C111.992 57.1043 112.182 57.3057 112.314 57.5424C112.464 57.8159 112.538 58.1226 112.53 58.4325C112.54 58.8475 112.44 59.2581 112.242 59.6248C112.043 59.9915 111.751 60.302 111.394 60.5267C111.155 60.6779 110.892 60.7908 110.616 60.8611C110.331 60.9362 110.038 60.9827 109.743 61.0001C109.459 61.0001 109.112 61.0001 108.718 61.0001H106.904ZM108.019 53.0247V56.292H108.544C108.835 56.2932 109.124 56.276 109.412 56.2406C109.663 56.2049 109.907 56.1338 110.138 56.0296C110.432 55.9001 110.681 55.6885 110.853 55.4212C111.025 55.154 111.113 54.843 111.105 54.5272C111.121 54.2084 111.032 53.8931 110.853 53.6268C110.673 53.3949 110.42 53.2283 110.132 53.1534C109.75 53.054 109.355 53.0089 108.96 53.0196L108.019 53.0247ZM108.019 56.7551V60.5421H109.217C109.602 60.55 109.983 60.4651 110.327 60.2951C110.64 60.1436 110.902 59.9058 111.079 59.6108C111.261 59.3123 111.355 58.9705 111.352 58.6229C111.383 58.3434 111.335 58.061 111.213 57.8062C111.092 57.5513 110.902 57.3338 110.663 57.1771C110.07 56.8622 109.398 56.716 108.723 56.7551H108.019Z" fill="white"></path>
  <path d="M120.24 52.5603L123.782 61.0001H122.541C122.144 59.8116 121.727 58.7284 121.3 57.7355H118.302C118.116 58.2069 117.963 58.603 117.841 58.929C117.718 59.2549 117.591 59.5959 117.463 59.967C117.335 60.3381 117.223 60.6791 117.129 61.0001H116.28L119.97 52.5603H120.24ZM121.123 57.229L119.813 54.1399L118.528 57.229H121.123Z" fill="white"></path>
  <path d="M127.534 61.0001V52.5701H130.297C131.062 52.5172 131.825 52.6792 132.493 53.0356C132.727 53.195 132.915 53.4083 133.038 53.6553C133.161 53.9024 133.215 54.175 133.196 54.4474C133.203 54.763 133.129 55.0755 132.979 55.3579C132.832 55.6265 132.626 55.862 132.374 56.0485C132.117 56.2435 131.831 56.4004 131.525 56.514C131.202 56.6356 130.867 56.7264 130.524 56.7851L133.228 59.9975L133.861 60.688L134.099 61.0001H132.579C132.179 60.4885 131.909 60.11 131.757 59.9258L130.222 58.0434L129.178 56.8823H128.686V60.9745H127.843L127.534 61.0001ZM128.691 53.0305V56.4168H129.302C129.664 56.4214 130.026 56.3974 130.384 56.3452C130.842 56.2609 131.263 56.0469 131.59 55.7313C131.896 55.4194 132.061 55.0062 132.049 54.5804C132.064 54.3902 132.038 54.1991 131.974 54.0184C131.909 53.8377 131.807 53.671 131.674 53.528C131.541 53.3851 131.378 53.2688 131.197 53.186C131.015 53.1032 130.818 53.0555 130.616 53.0458C130.349 53.0141 130.08 53.0021 129.811 53.01H129.27L128.691 53.0305Z" fill="white"></path>
  <path d="M140.251 53.1632V61.0001H139.283V53.1632C138.491 53.1646 137.699 53.2123 136.911 53.3062C136.911 53.2449 136.911 53.1785 136.933 53.1018C136.956 53.0252 136.933 52.9741 136.933 52.9384C136.936 52.8959 136.936 52.8532 136.933 52.8106C136.933 52.8106 136.933 52.7544 136.933 52.7187C136.937 52.666 136.937 52.613 136.933 52.5603H142.537C142.537 52.6523 142.537 52.7238 142.515 52.7851C142.511 52.8361 142.511 52.8874 142.515 52.9384C142.511 52.9877 142.511 53.0372 142.515 53.0865C142.515 53.1529 142.515 53.2245 142.537 53.3062C142.23 53.2653 141.882 53.2296 141.484 53.204C141.087 53.1785 140.671 53.1632 140.251 53.1632Z" fill="white"></path>
  <path d="M147.423 52.5757V60.4237C147.957 60.4237 148.722 60.4237 149.754 60.3722C149.893 60.3722 150.08 60.3722 150.315 60.3311L150.978 60.259C150.978 60.3465 150.978 60.4237 150.978 60.4803C150.974 60.5317 150.974 60.5833 150.978 60.6347C150.974 60.6844 150.974 60.7342 150.978 60.7839C150.978 60.8508 150.978 60.9229 150.978 61.0001H146.289V52.5603H147.091L147.423 52.5757Z" fill="white"></path>
  <path d="M155.844 53.0955V56.1832H158.21L158.598 56.1523H159.013C159.013 56.2244 159.013 56.2861 158.986 56.3376C158.981 56.3838 158.981 56.4304 158.986 56.4766C158.982 56.5194 158.982 56.5624 158.986 56.6052C158.986 56.667 158.986 56.739 159.013 56.8214H155.844V60.4237C156.383 60.4237 157.153 60.4237 158.193 60.3722C158.594 60.356 158.994 60.3182 159.39 60.259C159.394 60.3018 159.394 60.3448 159.39 60.3877C159.386 60.4305 159.386 60.4735 159.39 60.5163C159.392 60.5557 159.392 60.5953 159.39 60.6347C159.385 60.6946 159.385 60.7548 159.39 60.8148C159.39 60.8817 159.39 60.9435 159.417 61.0001H154.728V52.5603H159.336C159.341 52.6357 159.341 52.7113 159.336 52.7867C159.336 52.8485 159.336 52.9 159.336 52.9411C159.336 52.9823 159.336 53.0286 159.336 53.0904C159.336 53.1521 159.336 53.2293 159.336 53.3117C158.951 53.2441 158.562 53.1994 158.172 53.1779H156.873L155.844 53.0955Z" fill="white"></path>
  <path d="M166.124 53.1632V61.0001H164.998V53.1632C164.074 53.1644 163.15 53.2122 162.231 53.3062C162.231 53.2449 162.231 53.1785 162.258 53.1018C162.284 53.0252 162.258 52.9741 162.258 52.9384C162.261 52.8959 162.261 52.8532 162.258 52.8106C162.255 52.7801 162.255 52.7493 162.258 52.7187C162.258 52.6778 162.258 52.6267 162.258 52.5603H168.796C168.796 52.6523 168.796 52.7238 168.769 52.7851C168.743 52.8464 168.769 52.8975 168.769 52.9384C168.769 52.9792 168.769 53.0252 168.769 53.0865C168.769 53.1478 168.769 53.2245 168.796 53.3062C168.443 53.2653 168.033 53.2296 167.57 53.204C167.107 53.1785 166.608 53.1632 166.124 53.1632Z" fill="white"></path>
  <path d="M175.523 53.1632V61.0001H174.389V53.1632C173.46 53.1646 172.532 53.2123 171.608 53.3062C171.608 53.2449 171.608 53.1785 171.608 53.1018C171.611 53.0474 171.611 52.9928 171.608 52.9384C171.612 52.8959 171.612 52.8531 171.608 52.8106C171.61 52.78 171.61 52.7493 171.608 52.7187C171.608 52.6778 171.608 52.6267 171.608 52.5603H178.172C178.172 52.6523 178.172 52.7238 178.172 52.7851C178.151 52.8845 178.151 52.9871 178.172 53.0865C178.172 53.1529 178.172 53.2245 178.172 53.3062C177.817 53.2653 177.404 53.2296 176.943 53.204C176.482 53.1785 176.016 53.1632 175.523 53.1632Z" fill="white"></path>
</svg>
