<?xml version="1.0" encoding="UTF-8"?>
<svg xmlns="http://www.w3.org/2000/svg" width="352" height="52" viewBox="0 0 352 52" fill="none">
  <path d="M6.83296 36C3.56946 36 1.36288 34.9477 0 34.0345L1.33043 31.7908C2.28074 32.4769 4.28799 33.5292 6.79588 33.5292C9.08126 33.5292 11.7699 32.4305 11.7699 29.7696C11.7699 25.3704 5.77603 24.4572 2.69795 21.152C1.63175 20.0069 0.908589 18.5745 0.908589 16.6368C0.908589 13.0998 3.56946 10.4111 8.12631 10.4111C10.7825 10.4111 12.5673 11.0555 13.6752 11.6257V14.5925C12.3448 13.6793 10.2587 12.9561 8.20512 12.9561C5.78067 12.9561 3.64826 13.9435 3.64826 16.368C3.64826 21.9493 14.7368 21.991 14.7368 29.5101C14.7368 33.3808 11.3574 36 6.8376 36" fill="white"></path>
  <path d="M39.3058 34.104C37.827 35.555 35.588 36 33.4231 36C31.3741 36 29.5477 35.5086 28.2914 34.3636C27.1557 33.3113 26.4696 31.7537 26.4696 29.5518V17.1607H29.1259V29.5796C29.1259 30.9517 29.5848 31.9762 30.3404 32.6623C31.1794 33.3391 32.3198 33.6868 33.6456 33.6868C35.1661 33.6868 36.4595 33.3391 37.331 32.5835C38.017 31.9391 38.4296 30.9888 38.4296 29.7001V17.1607H41.0812V29.2458C41.0812 31.5219 40.3951 33.0841 39.2965 34.104" fill="white"></path>
  <path d="M56.8888 33.2371L66.4197 33.0841V35.6291H52.332L62.1271 19.5944L53.7783 19.6732L52.8651 17.1607H66.5681L56.8888 33.2371Z" fill="white"></path>
  <path d="M85.7412 24.4618C85.2498 23.1638 84.8743 22.1811 84.7213 21.4579H84.6796C84.4895 22.2228 84.1419 23.136 83.6551 24.4201L82.0975 28.5968H87.2941L85.7365 24.4618H85.7412ZM90.1914 35.6245L88.2908 31.0259H81.1843L79.3625 35.6245H76.4838L84.0028 17.0865H85.4816L93.0423 35.6245H90.1914Z" fill="white"></path>
  <path d="M117.268 35.6291L109.332 25.0274C107.77 22.9784 107.088 21.9956 106.514 21.0083H106.435C106.481 21.8334 106.514 22.7513 106.514 24.1234V35.6291H103.853V17.1607H106.782L114.144 27.081C115.896 29.4359 116.61 30.3862 117.18 31.4107H117.264C117.217 30.5392 117.217 29.6769 117.217 28.3001V17.1607H119.92V35.6291H117.264H117.268Z" fill="white"></path>
  <path d="M146.617 35.6291L138.676 25.0274C137.132 22.9784 136.437 21.9956 135.871 21.0083H135.792C135.825 21.8334 135.871 22.7513 135.871 24.1234V35.6291H133.21V17.1607H136.131L143.497 27.081C145.249 29.4359 145.977 30.3862 146.538 31.4107H146.612C146.58 30.5392 146.58 29.6769 146.58 28.3001V17.1607H149.268V35.6291H146.612H146.617Z" fill="white"></path>
  <path d="M172.358 19.6407H165.22V24.9856H172.247V27.4565H165.22V33.1537H172.854V35.6245H162.573V17.1653H173.276L172.358 19.6407Z" fill="white"></path>
  <path d="M220.212 35.6291L207.534 18.7692C206.05 16.7898 205.364 15.8349 204.905 14.8567H204.831C204.878 15.6911 204.905 16.558 204.905 17.8885V35.6291H202.143V10.6012H205.021L217.181 26.8492C218.882 29.1346 219.568 30.0802 220.027 31.0769H220.096C220.064 30.2332 220.027 29.3663 220.027 28.0359V10.6012H222.799V35.6291H220.212Z" fill="white"></path>
  <path d="M246.075 19.6407H238.936V24.9856H245.963V27.4565H238.936V33.1537H246.571V35.6245H236.275V17.1653H246.993L246.075 19.6407Z" fill="white"></path>
  <path d="M265.517 35.7682H264.001L256.208 17.1607H259.031L263.208 27.1922C263.727 28.4392 264.302 29.8902 264.719 31.2206H264.798C265.285 29.8902 265.818 28.6432 266.43 27.1922L270.644 17.1607H273.495L265.512 35.7682H265.517Z" fill="white"></path>
  <path d="M286.855 17.1653H284.198V35.6291H286.855V17.1653Z" fill="white"></path>
  <path d="M300.159 35.6291V17.1607H302.811V33.1537H310.135V35.6291H300.159Z" fill="white"></path>
  <path d="M320.584 35.6291V17.1607H323.24V33.1537H330.574V35.6291H320.584Z" fill="white"></path>
  <path d="M350.817 19.6407H343.669V24.9856H350.697V27.4565H343.669V33.1537H351.304V35.6245H341.018V17.1653H351.726L350.817 19.6407Z" fill="white"></path>
</svg>
