<?xml version="1.0" encoding="UTF-8"?>
<svg xmlns="http://www.w3.org/2000/svg" width="253" height="58" viewBox="0 0 253 58" fill="none">
  <path d="M64.6653 24.2381C47.7921 24.2381 32.0499 32.7861 22.7848 46.9776C22.5415 47.3547 22.6467 47.8575 23.0215 48.1023L23.1859 48.1883C24.6917 48.8169 26.2567 49.2998 27.8546 49.624C36.1203 51.2847 44.6621 48.625 50.5605 42.5646L49.3637 41.4598C43.8598 47.1165 35.8835 49.5843 28.1702 48.0295C27.322 47.8509 26.4869 47.6326 25.6649 47.3679L24.6786 47.0504L25.2769 46.2035C34.0423 33.9042 47.9959 26.4015 63.0345 25.8987H63.8565L63.7842 26.6926C62.8833 43.9606 48.2392 57.2193 31.0833 56.3195C15.1833 55.4793 2.47246 42.697 1.63735 26.6926L1.62419 25.8722H2.43958C6.2206 25.9979 9.96874 26.5669 13.6182 27.5726C17.7807 28.7238 21.7721 30.4307 25.4874 32.6471C25.7964 32.8456 26.2041 32.8059 26.4737 32.5611C34.8972 24.8203 45.4709 19.8516 56.7811 18.3365L57.6293 18.2307C57.7543 18.2174 57.8726 18.1711 57.9778 18.0983C58.3527 17.8469 58.4513 17.3441 58.2014 16.967C56.7745 14.8498 54.8544 13.1164 52.6055 11.9123C50.1396 10.6089 47.3778 9.98038 44.5963 10.0995H44.1492L43.919 9.70912C42.7354 7.70444 41.269 5.8784 39.5659 4.29715C37.6392 2.54389 35.443 1.11481 33.0626 0.069469C32.8521 -0.0231563 32.6154 -0.0231563 32.405 0.069469C27.8678 2.06091 24.0736 5.44174 21.5551 9.72897L21.325 10.1193H20.8778C15.466 9.87452 10.3173 12.4813 7.28586 17.0001C7.03599 17.3706 7.12805 17.8668 7.48971 18.1248C7.59492 18.1976 7.71986 18.2439 7.8448 18.2571L8.59442 18.3497C11.5403 18.7599 14.4534 19.4017 17.3006 20.275C19.7928 20.9697 22.2127 21.9026 24.5339 23.0538L25.9279 21.929C23.2845 20.6521 20.549 19.5803 17.7478 18.7136C15.4594 18.0057 13.1316 17.4433 10.7776 17.0265L9.33748 16.7751L10.3764 15.743C11.3431 14.7969 12.4346 13.9897 13.6248 13.348C17.0639 11.5418 21.0882 11.2308 24.7575 12.4945C26.1778 12.9907 27.5127 13.7185 28.7029 14.6513L28.8344 14.7837L32.1222 18.9783C32.3984 19.3289 32.9047 19.3885 33.2533 19.1172C33.3322 19.0577 33.3979 18.9849 33.4505 18.8989L34.0489 17.8668C34.404 17.3176 34.7065 16.8413 35.0747 16.4178C35.5219 15.8422 36.015 15.3063 36.5477 14.8167L36.5871 14.7837C37.8036 13.7979 39.1779 13.0304 40.6509 12.5143C45.6682 10.728 51.2575 11.9784 55.0582 15.7232L56.1103 16.7619L54.6571 17.0133C44.1097 18.8063 34.2659 23.5169 26.237 30.6292L25.8359 30.9799L25.369 30.7152C21.7984 28.6973 17.9977 27.1293 14.0457 26.0376C9.73202 24.8467 5.2737 24.2381 0.802234 24.2381C0.361663 24.2381 0 24.602 0 25.0585C0 43.2527 14.6638 58 32.7404 58C41.4268 58 49.7517 54.5266 55.8933 48.3471C62.0548 42.1875 65.507 33.7983 65.4807 25.0585C65.4807 24.6086 65.1125 24.2381 64.6653 24.2381ZM41.3414 10.5295C40.5391 10.728 39.7566 10.9926 39.0004 11.3234C37.7181 11.8726 36.5345 12.6401 35.5087 13.5928C34.9038 14.1551 34.3448 14.7638 33.8385 15.4122C33.6281 15.6768 33.4308 15.9481 33.2335 16.2194L32.6483 17.0398L30.0575 13.7317C30.0049 13.6523 29.9391 13.5795 29.8602 13.52C28.9725 12.7393 27.9993 12.0777 26.9537 11.5352L26.1581 11.158C25.5202 10.8868 24.8561 10.6685 24.1854 10.4964L23.1398 10.2318L23.7514 9.33862C25.9214 6.10996 28.9133 3.52307 32.4181 1.85581L32.7404 1.70364L33.0626 1.85581C35.0353 2.7953 36.8567 4.03251 38.4678 5.51452C39.704 6.67233 40.8087 7.96247 41.7556 9.3717L42.3606 10.2649L41.3414 10.5295Z" fill="white"></path>
  <path d="M87.6408 24.6284C87.6408 24.3704 87.8446 24.1653 88.1011 24.1653H94.4072C97.3005 24.1388 99.6743 26.4743 99.7137 29.3854C99.6677 31.6481 98.2342 33.6462 96.1103 34.407L99.4507 40.6327C99.5822 40.8511 99.523 41.1356 99.306 41.2679C99.2271 41.3208 99.1351 41.3407 99.0364 41.3407H97.7936C97.6358 41.3539 97.478 41.2679 97.4057 41.1223L94.1639 34.6055H89.5148V40.8511C89.5017 41.1025 89.2978 41.3076 89.048 41.3142H88.1142C87.8578 41.3142 87.6539 41.1091 87.6539 40.8511L87.6408 24.6284ZM94.2888 32.9845C96.222 33.0706 97.8528 31.5621 97.9383 29.6236C98.0238 27.685 96.5245 26.0376 94.5978 25.9516C94.4992 25.9516 94.394 25.9516 94.2954 25.9516H89.5675V32.9845H94.2954H94.2888Z" fill="white"></path>
  <path d="M116.804 23.9205C121.644 23.9073 125.576 27.8505 125.589 32.7199C125.602 37.5893 121.683 41.5458 116.843 41.559C112.004 41.5722 108.071 37.6357 108.058 32.7662C108.039 27.9034 111.938 23.9403 116.771 23.9205C116.784 23.9205 116.791 23.9205 116.804 23.9205ZM116.804 39.8454C120.703 39.8587 123.873 36.6829 123.886 32.7596C123.899 28.8363 120.743 25.6473 116.843 25.6341C112.944 25.6208 109.775 28.7966 109.761 32.7199C109.761 32.7331 109.761 32.753 109.761 32.7662C109.781 36.6697 112.924 39.8256 116.804 39.8454Z" fill="white"></path>
  <path d="M133.756 38.7472C133.881 38.595 133.999 38.423 134.124 38.2774C134.368 37.9598 134.637 37.7614 134.979 38.0591C135.144 38.2046 136.952 39.9182 139.089 39.9182C141.062 39.9182 142.377 38.6678 142.377 37.2255C142.377 35.5317 140.91 34.5327 138.116 33.355C135.433 32.1774 133.828 31.0725 133.828 28.2805C133.828 26.6132 135.144 23.9205 139.017 23.9205C140.483 23.9337 141.917 24.3572 143.159 25.1445C143.422 25.29 143.514 25.6208 143.37 25.8789C143.35 25.9119 143.33 25.945 143.304 25.9781C143.205 26.1237 143.107 26.2957 143.015 26.4412C142.896 26.7257 142.567 26.858 142.278 26.7389C142.232 26.7191 142.193 26.6993 142.16 26.6662C141.206 26.0244 140.115 25.6341 138.971 25.5348C136.386 25.5348 135.61 27.2021 135.61 28.2342C135.61 29.875 136.853 30.8277 138.898 31.6878C142.186 33.011 144.303 34.2813 144.303 37.1262C144.303 39.6734 141.89 41.5325 139.043 41.5325C137.149 41.5061 135.328 40.8048 133.907 39.5477C133.651 39.3955 133.565 39.0647 133.717 38.8067C133.73 38.7869 133.743 38.767 133.756 38.7472Z" fill="white"></path>
  <path d="M153.483 24.6284C153.483 24.3704 153.687 24.1653 153.943 24.1653H163.537C163.794 24.1653 163.998 24.3638 164.004 24.6218C164.004 24.6218 164.004 24.6218 164.004 24.6284V25.343C164.004 25.601 163.8 25.8061 163.544 25.8061C163.544 25.8061 163.544 25.8061 163.537 25.8061H155.357V31.7606H162.347C162.597 31.7672 162.801 31.9723 162.807 32.2237V32.9382C162.807 33.1963 162.604 33.4014 162.347 33.4014H155.357V39.6999H163.537C163.794 39.6999 164.004 39.9116 164.004 40.1696V40.8775C164.004 41.1356 163.8 41.3407 163.544 41.3407C163.544 41.3407 163.544 41.3407 163.537 41.3407H153.943C153.687 41.3407 153.483 41.1356 153.483 40.8775V24.6284Z" fill="white"></path>
  <path d="M173.092 24.6284C173.092 24.3704 173.296 24.1653 173.552 24.1653C173.552 24.1653 173.552 24.1653 173.559 24.1653H178.892C181.864 24.1653 183.883 26.1038 183.883 28.6708C183.83 30.3116 182.922 31.8069 181.489 32.5942C183.192 33.1764 184.356 34.7577 184.415 36.5639C184.415 39.3029 182.245 41.2877 179.102 41.2877H173.552C173.296 41.2877 173.092 41.0893 173.085 40.8312C173.085 40.8312 173.085 40.8312 173.085 40.8246V24.6284H173.092ZM179.306 39.6999C180.963 39.7396 182.337 38.4164 182.377 36.7425C182.377 36.6896 182.377 36.6366 182.377 36.5903C182.377 34.8503 180.792 33.5734 178.892 33.5734H174.874V39.6999H179.306ZM178.892 31.8863C180.443 31.9524 181.752 30.7351 181.818 29.1737C181.818 29.0546 181.818 28.9421 181.811 28.823C181.943 27.3278 180.845 26.0178 179.358 25.8855C179.201 25.8722 179.049 25.8722 178.892 25.8855H174.946V31.8863H178.892Z" fill="white"></path>
  <path d="M191.721 40.6791L199.125 24.1918C199.197 24.0263 199.362 23.9139 199.539 23.9205H199.783C199.96 23.9205 200.125 24.0263 200.197 24.1918L207.548 40.6791C207.68 40.8775 207.621 41.1422 207.424 41.2745C207.338 41.3341 207.233 41.3539 207.134 41.3407H206.161C205.983 41.3407 205.826 41.2348 205.747 41.076L203.945 37.0336H195.298L193.522 41.0231C193.45 41.1885 193.286 41.2944 193.108 41.2877H192.135C191.898 41.301 191.694 41.1223 191.681 40.8842C191.681 40.8114 191.688 40.7452 191.721 40.6791ZM203.287 35.4854C202.097 32.839 200.927 30.1198 199.737 27.4469H199.539L195.956 35.4854H203.287Z" fill="white"></path>
  <path d="M216.011 24.3638C216.025 24.1124 216.228 23.9205 216.478 23.9205H217.083L228.065 37.715H228.117V24.6284C228.117 24.3704 228.321 24.1653 228.577 24.1653H229.432C229.682 24.1719 229.886 24.377 229.893 24.6284V41.1223C229.879 41.3671 229.676 41.5656 229.432 41.559H228.992L217.813 27.5196V40.8511C217.813 41.1091 217.609 41.3142 217.353 41.3142C217.353 41.3142 217.353 41.3142 217.346 41.3142H216.498C216.248 41.3076 216.044 41.1025 216.031 40.8511L216.011 24.3638Z" fill="white"></path>
  <path d="M240.506 24.7541C240.506 24.4299 240.756 24.1719 241.078 24.1653C241.078 24.1653 241.084 24.1653 241.091 24.1653H241.795C242.117 24.1719 242.373 24.4299 242.38 24.7541V31.6878L249.981 24.4101C250.1 24.2711 250.264 24.1851 250.442 24.1653H251.632C251.895 24.1587 252.112 24.3638 252.118 24.6284C252.118 24.7872 252.053 24.9328 251.928 25.0254L244.234 32.2502L252.289 40.56C252.441 40.7717 252.395 41.0694 252.184 41.2282C252.092 41.2944 251.987 41.3274 251.875 41.3142H250.639C250.475 41.3142 250.317 41.2547 250.198 41.1488L242.38 32.9382V40.732C242.373 41.0562 242.117 41.3076 241.795 41.3142H241.091C240.775 41.3208 240.512 41.0694 240.506 40.7518C240.506 40.7452 240.506 40.7386 240.506 40.732V24.7541Z" fill="white"></path>
</svg>
